<svg width="25" height="25" viewBox="0 0 25 25" fill="none" xmlns="http://www.w3.org/2000/svg">
<g clip-path="url(#clip0_13_2969)">
<path d="M22.0346 7.16434C21.898 7.13973 21.7937 7.02873 21.783 6.89044C21.5078 3.33476 18.5357 0.535156 14.9095 0.535156C12.2363 0.535156 9.91891 2.05684 8.77488 4.281C8.70831 4.41051 8.55954 4.47498 8.42011 4.43263C8.089 4.33231 7.73766 4.27795 7.37374 4.27795C5.72656 4.27795 4.33781 5.38173 3.90504 6.88968C3.86765 7.01995 3.74692 7.10636 3.6115 7.10636C3.61073 7.10636 3.60997 7.10636 3.60902 7.10636C1.59981 7.10636 -0.02582 8.7482 0.000310669 10.7635C0.0260599 12.7468 1.67935 14.3247 3.6628 14.3247H21.3371C23.3386 14.3247 25.0162 12.6869 24.9997 10.6855C24.9854 8.9252 23.7111 7.46627 22.0346 7.16434Z" fill="#54A0FF"/>
<path d="M9.13105 4.27776C9.49516 4.27776 9.84631 4.33231 10.1776 4.43263C10.317 4.47498 10.4656 4.41032 10.5324 4.281C11.5492 2.30384 13.4937 0.882866 15.7909 0.591423C15.5024 0.55442 15.2082 0.535156 14.9096 0.535156C12.2362 0.535156 9.91879 2.05684 8.77476 4.281C8.7719 4.28653 8.76789 4.29149 8.76465 4.29702C8.88519 4.28481 9.00726 4.27776 9.13105 4.27776Z" fill="#338DEF"/>
<path d="M1.75774 10.7668C1.73161 8.7515 3.35744 7.10966 5.36664 7.10966H5.36912C5.50435 7.10985 5.62527 7.02326 5.66247 6.89317C6.01552 5.66312 7.00448 4.70239 8.25074 4.38978C7.96998 4.3194 7.67644 4.28125 7.37374 4.28125C5.72655 4.28125 4.33781 5.38503 3.90504 6.89317C3.86765 7.02326 3.74692 7.10985 3.6115 7.10966C3.61073 7.10966 3.60997 7.10966 3.60921 7.10966C1.6 7.10966 -0.0258201 8.7515 0.000310633 10.7668C0.0260598 12.7503 1.67935 14.328 3.66299 14.328H5.42043C3.43678 14.328 1.78349 12.7503 1.75774 10.7668Z" fill="#338DEF"/>
<path d="M7.30837 19.5902H4.06282C3.85435 19.5902 3.68555 19.4212 3.68555 19.2129C3.68555 19.0044 3.85435 18.8356 4.06282 18.8356H6.93109V15.7251C6.93109 15.5166 7.10008 15.3477 7.30837 15.3477C7.51665 15.3477 7.68564 15.5166 7.68564 15.7251V19.2129C7.68564 19.4212 7.51665 19.5902 7.30837 19.5902Z" fill="#E4EAF8"/>
<path d="M10.6224 23.0597C10.4141 23.0597 10.2451 22.8907 10.2451 22.6822V15.7252C10.2451 15.5167 10.4139 15.3479 10.6224 15.3479C10.8307 15.3479 10.9997 15.5167 10.9997 15.7252V22.6822C10.9997 22.8907 10.8307 23.0597 10.6224 23.0597Z" fill="#E4EAF8"/>
<path d="M20.4401 19.5902H17.1944C16.9861 19.5902 16.8171 19.4212 16.8171 19.2129V15.7251C16.8171 15.5166 16.9861 15.3477 17.1944 15.3477C17.4029 15.3477 17.5719 15.5166 17.5719 15.7251V18.8356H20.4401C20.6484 18.8356 20.8174 19.0044 20.8174 19.2129C20.8174 19.4212 20.6484 19.5902 20.4401 19.5902Z" fill="#E4EAF8"/>
<path d="M13.8804 23.0597C13.6722 23.0597 13.5032 22.8907 13.5032 22.6822V15.7252C13.5032 15.5167 13.6722 15.3479 13.8804 15.3479C14.0889 15.3479 14.2579 15.5167 14.2579 15.7252V22.6822C14.2579 22.8907 14.0889 23.0597 13.8804 23.0597Z" fill="#E4EAF8"/>
<path d="M7.30843 13.0993C7.10014 13.0993 6.93115 12.9303 6.93115 12.722V12.1624C6.93115 11.9541 7.10014 11.7852 7.30843 11.7852C7.51671 11.7852 7.6857 11.954 7.6857 12.1624V12.722C7.6857 12.9303 7.51671 13.0993 7.30843 13.0993Z" fill="#E4EAF8"/>
<path d="M10.6224 13.0993C10.4141 13.0993 10.2451 12.9303 10.2451 12.722V12.1624C10.2451 11.9541 10.4139 11.7852 10.6224 11.7852C10.8307 11.7852 10.9997 11.954 10.9997 12.1624V12.722C10.9997 12.9303 10.8307 13.0993 10.6224 13.0993Z" fill="#E4EAF8"/>
<path d="M13.8804 13.0993C13.6722 13.0993 13.5032 12.9303 13.5032 12.722V12.1624C13.5032 11.9541 13.6722 11.7852 13.8804 11.7852C14.0889 11.7852 14.2579 11.954 14.2579 12.1624V12.722C14.2579 12.9303 14.0889 13.0993 13.8804 13.0993Z" fill="#E4EAF8"/>
<path d="M17.1944 13.0993C16.9861 13.0993 16.8171 12.9303 16.8171 12.722V12.1624C16.8171 11.9541 16.9861 11.7852 17.1944 11.7852C17.4029 11.7852 17.5719 11.954 17.5719 12.1624V12.722C17.5719 12.9303 17.4029 13.0993 17.1944 13.0993Z" fill="#E4EAF8"/>
<path d="M4.06258 19.2133C4.06258 19.7258 3.64697 20.1412 3.13447 20.1412C2.62196 20.1412 2.20654 19.7258 2.20654 19.2133C2.20654 18.7006 2.62196 18.2852 3.13447 18.2852C3.64697 18.2852 4.06258 18.7006 4.06258 19.2133Z" fill="#FECA57"/>
<path d="M3.46406 19.2133C3.46406 18.9436 3.57983 18.7017 3.76332 18.532C3.59795 18.3792 3.37746 18.2852 3.13447 18.2852C2.62196 18.2852 2.20654 18.7006 2.20654 19.2131C2.20654 19.7258 2.62196 20.1412 3.13447 20.1412C3.37746 20.1412 3.59795 20.0472 3.76332 19.8942C3.57964 19.7248 3.46406 19.4828 3.46406 19.2133Z" fill="#F4B537"/>
<path d="M11.5504 23.6115C11.5504 24.124 11.1348 24.5396 10.6223 24.5396C10.1098 24.5396 9.69434 24.124 9.69434 23.6115C9.69434 23.099 10.1098 22.6836 10.6223 22.6836C11.1348 22.6836 11.5504 23.099 11.5504 23.6115Z" fill="#FECA57"/>
<path d="M10.952 23.6117C10.952 23.3422 11.0676 23.1002 11.2513 22.9306C11.0857 22.7778 10.8654 22.6836 10.6225 22.6836C10.1099 22.6836 9.69434 23.0992 9.69434 23.6117C9.69434 24.1242 10.1099 24.5398 10.6225 24.5398C10.8654 24.5398 11.0859 24.4456 11.2513 24.2928C11.0676 24.1233 10.952 23.8814 10.952 23.6117Z" fill="#F4B537"/>
<path d="M14.8082 23.6115C14.8082 24.124 14.3928 24.5396 13.8801 24.5396C13.3676 24.5396 12.9521 24.124 12.9521 23.6115C12.9521 23.099 13.3676 22.6836 13.8801 22.6836C14.3928 22.6836 14.8082 23.099 14.8082 23.6115Z" fill="#FECA57"/>
<path d="M14.2097 23.6117C14.2097 23.3422 14.3254 23.1002 14.5089 22.9306C14.3436 22.7778 14.1231 22.6836 13.8801 22.6836C13.3676 22.6836 12.9521 23.0992 12.9521 23.6117C12.9521 24.1242 13.3676 24.5398 13.8801 24.5398C14.1231 24.5398 14.3436 24.4456 14.5089 24.2928C14.3254 24.1233 14.2097 23.8814 14.2097 23.6117Z" fill="#F4B537"/>
<path d="M22.296 19.2133C22.296 19.7258 21.8804 20.1412 21.3679 20.1412C20.8554 20.1412 20.4399 19.7258 20.4399 19.2133C20.4399 18.7006 20.8554 18.2852 21.3679 18.2852C21.8804 18.2852 22.296 18.7006 22.296 19.2133Z" fill="#FECA57"/>
<path d="M21.6975 19.2133C21.6975 18.9436 21.8132 18.7017 21.9967 18.532C21.8314 18.3792 21.6109 18.2852 21.3679 18.2852C20.8554 18.2852 20.4399 18.7006 20.4399 19.2131C20.4399 19.7258 20.8554 20.1412 21.3679 20.1412C21.6109 20.1412 21.8314 20.0472 21.9967 19.8942C21.8132 19.7248 21.6975 19.4828 21.6975 19.2133Z" fill="#F4B537"/>
</g>
<defs>
<clipPath id="clip0_13_2969">
<rect width="25" height="25" fill="white"/>
</clipPath>
</defs>
</svg>
