<svg width="40" height="40" viewBox="0 0 40 40" fill="none" xmlns="http://www.w3.org/2000/svg">
<path d="M8.65403 31.3461C9.71557 31.3461 10.5771 32.2068 10.5771 33.2691C10.5771 34.3315 9.71557 35.1922 8.65403 35.1922C7.59173 35.1922 6.73096 34.3315 6.73096 33.2691C6.73096 32.2068 7.59173 31.3461 8.65403 31.3461Z" fill="#68CA44"/>
<path d="M33.2696 31.7307C33.9065 31.7307 34.4234 32.2476 34.4234 32.8846C34.4234 33.5215 33.9065 34.0384 33.2696 34.0384C32.632 34.0384 32.1157 33.5215 32.1157 32.8846C32.1157 32.2476 32.632 31.7307 33.2696 31.7307Z" fill="#68CA44"/>
<path d="M33.6539 10.1923C34.9284 10.1923 35.9616 9.1591 35.9616 7.8846C35.9616 6.61009 34.9284 5.5769 33.6539 5.5769C32.3794 5.5769 31.3462 6.61009 31.3462 7.8846C31.3462 9.1591 32.3794 10.1923 33.6539 10.1923Z" fill="#68CA44"/>
<path d="M20.9618 34.4231V35C20.9618 35.7439 20.3588 36.3462 19.6157 36.3462C18.8718 36.3462 18.2695 35.7439 18.2695 35V34.4231H20.9618Z" fill="#414A56"/>
<path d="M22.3081 32.5C22.8388 32.5 23.2696 32.9308 23.2696 33.4615C23.2696 33.9939 22.8378 34.4231 22.3081 34.4231C21.2066 34.4231 18.1559 34.4231 16.9235 34.4231C16.3919 34.4231 15.9619 33.9923 15.9619 33.4615C15.9619 32.93 16.3927 32.5 16.9235 32.5H22.3081Z" fill="#57606F"/>
<path d="M35.9824 22.03C35.9824 24.8385 33.7055 27.1153 30.8971 27.1153C10.7486 27.1111 8.9337 27.1107 8.90324 27.1107C6.18709 27.0061 4.01709 24.7723 4.01709 22.0299C4.01709 19.3014 6.16632 17.0753 8.86401 16.9506C8.55017 16.1614 8.37632 15.3022 8.37632 14.4022C8.37632 10.5899 11.4663 7.49988 15.2779 7.49988C18.354 7.49988 20.9594 9.51372 21.8502 12.2937C22.7294 11.5683 23.8563 11.133 25.0855 11.133C28.2016 11.133 30.5929 13.915 30.1101 17.0053C33.2005 16.5227 35.9824 18.9147 35.9824 22.03Z" fill="#4A78FF"/>
<path d="M26.923 24.0384C26.923 25.1369 26.6807 26.1799 26.2453 27.1146C25.4315 28.8661 23.9437 30.2414 22.1153 30.9069V32.4999H17.1153V30.9069C14.3049 29.8833 12.3076 27.1888 12.3076 24.0384C12.3076 20.0022 15.5792 16.7307 19.6153 16.7307C23.6508 16.7307 26.923 20.0022 26.923 24.0384Z" fill="#FFCC66"/>
<path d="M36.5388 30.5769C36.8575 30.5769 37.1158 30.3186 37.1158 30C37.1158 29.6814 36.8575 29.4231 36.5388 29.4231C36.2202 29.4231 35.9619 29.6814 35.9619 30C35.9619 30.3186 36.2202 30.5769 36.5388 30.5769Z" fill="#94D4FF"/>
<path d="M35.7693 14.423C36.0879 14.423 36.3462 14.1647 36.3462 13.8461C36.3462 13.5275 36.0879 13.2692 35.7693 13.2692C35.4507 13.2692 35.1924 13.5275 35.1924 13.8461C35.1924 14.1647 35.4507 14.423 35.7693 14.423Z" fill="#94D4FF"/>
<path d="M28.0769 5.96146C28.3955 5.96146 28.6538 5.70317 28.6538 5.38454C28.6538 5.06591 28.3955 4.80762 28.0769 4.80762C27.7583 4.80762 27.5 5.06591 27.5 5.38454C27.5 5.70317 27.7583 5.96146 28.0769 5.96146Z" fill="#94D4FF"/>
<path d="M27.3079 34.8077C27.6265 34.8077 27.8848 34.5494 27.8848 34.2307C27.8848 33.9121 27.6265 33.6538 27.3079 33.6538C26.9893 33.6538 26.731 33.9121 26.731 34.2307C26.731 34.5494 26.9893 34.8077 27.3079 34.8077Z" fill="#94D4FF"/>
<path d="M13.8465 35.5769C14.1651 35.5769 14.4234 35.3186 14.4234 35C14.4234 34.6814 14.1651 34.4231 13.8465 34.4231C13.5278 34.4231 13.2695 34.6814 13.2695 35C13.2695 35.3186 13.5278 35.5769 13.8465 35.5769Z" fill="#94D4FF"/>
<path d="M7.69265 4.80765C8.01127 4.80765 8.26957 4.54936 8.26957 4.23073C8.26957 3.91211 8.01127 3.65381 7.69265 3.65381C7.37402 3.65381 7.11572 3.91211 7.11572 4.23073C7.11572 4.54936 7.37402 4.80765 7.69265 4.80765Z" fill="#94D4FF"/>
<path d="M3.84645 12.8846C4.16508 12.8846 4.42338 12.6263 4.42338 12.3076C4.42338 11.989 4.16508 11.7307 3.84645 11.7307C3.52783 11.7307 3.26953 11.989 3.26953 12.3076C3.26953 12.6263 3.52783 12.8846 3.84645 12.8846Z" fill="#94D4FF"/>
<path d="M3.46169 30.9615C3.78031 30.9615 4.03861 30.7032 4.03861 30.3845C4.03861 30.0659 3.78031 29.8076 3.46169 29.8076C3.14306 29.8076 2.88477 30.0659 2.88477 30.3845C2.88477 30.7032 3.14306 30.9615 3.46169 30.9615Z" fill="#94D4FF"/>
<path d="M6.52146 15.8946C6.33046 15.8946 6.16485 15.7524 6.14031 15.558C6.09285 15.1817 6.06885 14.7926 6.06885 14.4015C6.06885 9.32349 10.2001 5.19226 15.2781 5.19226C18.4367 5.19226 21.3339 6.77257 23.0282 9.41957C23.1426 9.59849 23.0905 9.83634 22.9115 9.95088C22.7327 10.0653 22.4948 10.0132 22.3803 9.83426C20.8282 7.40926 18.1731 5.96149 15.2781 5.96149C10.6242 5.96149 6.83808 9.74765 6.83808 14.4015C6.83808 14.7606 6.86008 15.1173 6.90354 15.4618C6.93008 15.6726 6.78077 15.865 6.57008 15.8915C6.55369 15.8936 6.53746 15.8946 6.52146 15.8946Z" fill="#2663F0"/>
<path d="M10.8045 14.3877C10.5922 14.3877 10.4199 14.2155 10.4199 14.0031C10.4199 11.4776 12.4745 9.4231 14.9999 9.4231C15.2123 9.4231 15.3845 9.59533 15.3845 9.80771C15.3845 10.0201 15.2123 10.1923 14.9999 10.1923C12.8987 10.1923 11.1892 11.9019 11.1892 14.0031C11.1892 14.2155 11.017 14.3877 10.8045 14.3877Z" fill="#2663F0"/>
<path d="M24.2311 24.4231C24.0186 24.4231 23.8465 24.2509 23.8465 24.0385C23.8465 21.7056 21.9486 19.8077 19.6157 19.8077C17.2829 19.8077 15.385 21.7056 15.385 24.0385C15.385 24.2509 15.2127 24.4231 15.0003 24.4231C14.788 24.4231 14.6157 24.2509 14.6157 24.0385C14.6157 21.2815 16.8587 19.0385 19.6157 19.0385C22.3728 19.0385 24.6157 21.2815 24.6157 24.0385C24.6157 24.2509 24.4436 24.4231 24.2311 24.4231Z" fill="#FF9900"/>
</svg>
