<svg width="40" height="40" viewBox="0 0 40 40" fill="none" xmlns="http://www.w3.org/2000/svg">
<g clip-path="url(#clip0_13_2470)">
<path fill-rule="evenodd" clip-rule="evenodd" d="M5.97342 16.4113C5.96397 16.7552 5.67756 17.0262 5.33374 17.0168C4.98991 17.0073 4.71881 16.7209 4.72827 16.3771C4.74444 15.8152 4.79045 15.2642 4.86452 14.7258C4.94131 14.1678 5.04639 13.6255 5.17803 13.1C5.26163 12.7656 5.60045 12.5623 5.93483 12.6459C6.2692 12.7295 6.47249 13.0684 6.38889 13.4027C6.26545 13.8955 6.1685 14.3925 6.09983 14.8918C6.03077 15.3938 5.98811 15.9009 5.97342 16.4113ZM15.6608 3.47648C15.3332 3.58297 14.9812 3.40375 14.8748 3.07609C14.7683 2.74844 14.9475 2.39648 15.2751 2.29C16.0228 2.04711 16.8016 1.85945 17.607 1.73234C18.3963 1.60781 19.1958 1.54297 20.0002 1.54297C20.8045 1.54297 21.6041 1.60781 22.3934 1.73234C23.1987 1.85945 23.9776 2.04711 24.7253 2.29C25.053 2.39648 25.2322 2.74852 25.1257 3.07609C25.0192 3.40375 24.6672 3.58297 24.3396 3.47648C23.6437 3.25039 22.9298 3.07742 22.203 2.96273C21.4951 2.85102 20.7597 2.79289 20.0003 2.79289C19.2409 2.79289 18.5055 2.85102 17.7976 2.96273C17.0707 3.07742 16.3568 3.25039 15.6608 3.47648ZM33.6113 13.4027C33.5277 13.0684 33.731 12.7295 34.0654 12.6459C34.3998 12.5623 34.7387 12.7656 34.8222 13.1C34.9538 13.6255 35.0588 14.1679 35.1357 14.7259C35.2097 15.2642 35.2558 15.8152 35.2719 16.3771C35.2814 16.7209 35.0103 17.0073 34.6665 17.0168C34.3226 17.0262 34.0362 16.7552 34.0268 16.4113C34.0121 15.9009 33.9694 15.3939 33.9003 14.8919C33.8316 14.3925 33.7348 13.8955 33.6113 13.4027Z" fill="#B4D2D7"/>
<path d="M35.9931 6.84476C36.6264 4.16566 34.9679 1.48044 32.2888 0.847145C29.6097 0.213853 26.9245 1.87231 26.2912 4.55141C25.6579 7.23051 27.3164 9.91573 29.9955 10.549C32.6746 11.1823 35.3598 9.52386 35.9931 6.84476Z" fill="#465759"/>
<path fill-rule="evenodd" clip-rule="evenodd" d="M33.7348 1.43359C35.1662 2.30969 36.1213 3.88766 36.1213 5.68883C36.1213 8.44227 33.8892 10.6744 31.1358 10.6744C29.8471 10.6744 28.6725 10.1854 27.7876 9.38281C28.5444 9.84602 29.4342 10.1131 30.3865 10.1131C33.1399 10.1131 35.3721 7.88102 35.3721 5.12758C35.3721 3.66289 34.7405 2.34578 33.7348 1.43359Z" fill="#3A484A"/>
<path fill-rule="evenodd" clip-rule="evenodd" d="M34.2603 9.57117C33.4054 10.2596 32.3188 10.672 31.1358 10.672C29.9527 10.672 28.8661 10.2596 28.0112 9.57117C28.7233 8.61695 29.8605 7.99609 31.1358 7.99609C32.411 7.99609 33.5482 8.61695 34.2603 9.57117Z" fill="#FF8A2D"/>
<path fill-rule="evenodd" clip-rule="evenodd" d="M34.2605 9.57117C34.0716 9.72336 33.8713 9.86195 33.6613 9.9857C33.0587 8.92063 31.9695 8.16313 30.7012 8.02063C30.844 8.00461 30.9891 7.99609 31.136 7.99609C32.4113 7.99609 33.5484 8.61695 34.2605 9.57117Z" fill="#FF6C00"/>
<path fill-rule="evenodd" clip-rule="evenodd" d="M34.2604 9.57328C33.4056 10.2617 32.319 10.6741 31.1359 10.6741C29.9529 10.6741 28.8661 10.262 28.0112 9.57344C28.0222 9.55867 28.0335 9.54406 28.0447 9.52945C28.7429 9.90172 29.5402 10.1128 30.3867 10.1128C31.6271 10.1128 32.7615 9.65969 33.634 8.91016C33.8674 9.10609 34.0779 9.32867 34.2604 9.57328Z" fill="#FF6C00"/>
<path fill-rule="evenodd" clip-rule="evenodd" d="M34.2603 9.57328C34.0714 9.72547 33.8711 9.86406 33.661 9.98781C33.5164 9.73234 33.3438 9.49469 33.1475 9.27883C33.3171 9.1657 33.4796 9.04266 33.6337 8.91016C33.8672 9.10609 34.0778 9.32867 34.2603 9.57328Z" fill="#FDB800"/>
<path fill-rule="evenodd" clip-rule="evenodd" d="M31.1355 7.79453C32.2956 7.79453 33.2418 6.84836 33.2418 5.68828C33.2418 4.5282 32.2956 3.58203 31.1355 3.58203C29.9755 3.58203 29.0293 4.5282 29.0293 5.68828C29.0293 6.84836 29.9755 7.79453 31.1355 7.79453Z" fill="#FFD6BD"/>
<path fill-rule="evenodd" clip-rule="evenodd" d="M29.5386 7.06039C29.9248 7.5093 30.4971 7.79359 31.1358 7.79359C32.299 7.79359 33.242 6.85055 33.242 5.68734C33.242 4.94031 32.853 4.28414 32.2665 3.91016C32.5838 4.27891 32.7756 4.75859 32.7756 5.28312C32.7756 6.44641 31.8326 7.38937 30.6694 7.38937C30.2532 7.38945 29.8653 7.26875 29.5386 7.06039Z" fill="#F9C6AA"/>
<path d="M13.6909 6.9642C14.3985 4.30163 12.8138 1.56953 10.1512 0.861895C7.4886 0.15426 4.7565 1.73905 4.04886 4.40163C3.34123 7.06421 4.92602 9.79631 7.5886 10.5039C10.2512 11.2116 12.9833 9.62678 13.6909 6.9642Z" fill="#465759"/>
<path fill-rule="evenodd" clip-rule="evenodd" d="M11.4628 1.43359C12.8942 2.30969 13.8494 3.88766 13.8494 5.68883C13.8494 8.44227 11.6173 10.6744 8.86383 10.6744C7.57508 10.6744 6.40055 10.1854 5.51562 9.38281C6.27242 9.84602 7.16227 10.1131 8.11453 10.1131C10.868 10.1131 13.1001 7.88102 13.1001 5.12758C13.1002 3.66289 12.4685 2.34578 11.4628 1.43359Z" fill="#3A484A"/>
<path fill-rule="evenodd" clip-rule="evenodd" d="M11.9883 9.57117C11.1335 10.2596 10.0468 10.672 8.86379 10.672C7.68074 10.672 6.5941 10.2596 5.73926 9.57117C6.45129 8.61695 7.58855 7.99609 8.86379 7.99609C10.139 7.99609 11.2763 8.61695 11.9883 9.57117Z" fill="#64B5F6"/>
<path fill-rule="evenodd" clip-rule="evenodd" d="M11.9886 9.57117C11.7997 9.72336 11.5994 9.86195 11.3893 9.9857C10.7867 8.92063 9.69748 8.16313 8.4292 8.02063C8.57201 8.00461 8.71709 7.99609 8.86404 7.99609C10.1393 7.99609 11.2765 8.61695 11.9886 9.57117Z" fill="#42A5F5"/>
<path fill-rule="evenodd" clip-rule="evenodd" d="M11.9885 9.57328C11.1336 10.2617 10.047 10.6741 8.86395 10.6741C7.6809 10.6741 6.5941 10.262 5.73926 9.57344C5.75027 9.55867 5.76152 9.54406 5.77277 9.52945C6.47098 9.90172 7.26824 10.1128 8.11473 10.1128C9.35512 10.1128 10.4896 9.65969 11.3619 8.91016C11.5955 9.10609 11.806 9.32867 11.9885 9.57328Z" fill="#42A5F5"/>
<path fill-rule="evenodd" clip-rule="evenodd" d="M11.9888 9.57328C11.7999 9.72547 11.5996 9.86406 11.3895 9.98781C11.245 9.73234 11.0723 9.49469 10.876 9.27883C11.0457 9.1657 11.208 9.04266 11.3622 8.91016C11.5958 9.10609 11.8063 9.32867 11.9888 9.57328Z" fill="#2D90F1"/>
<path fill-rule="evenodd" clip-rule="evenodd" d="M8.86406 7.79453C10.0241 7.79453 10.9703 6.84836 10.9703 5.68828C10.9703 4.5282 10.0241 3.58203 8.86406 3.58203C7.70398 3.58203 6.75781 4.5282 6.75781 5.68828C6.75781 6.84836 7.70398 7.79453 8.86406 7.79453Z" fill="#FFD6BD"/>
<path fill-rule="evenodd" clip-rule="evenodd" d="M7.26709 7.06039C7.65334 7.5093 8.22561 7.79359 8.8642 7.79359C10.0275 7.79359 10.9704 6.85055 10.9704 5.68734C10.9704 4.94031 10.5815 4.28414 9.99498 3.91016C10.3122 4.27891 10.504 4.75859 10.504 5.28312C10.504 6.44641 9.56107 7.38937 8.39779 7.38937C7.9817 7.38945 7.59373 7.26875 7.26709 7.06039Z" fill="#F9C6AA"/>
<path fill-rule="evenodd" clip-rule="evenodd" d="M18.6249 8.58203H21.3746V9.96172C22.2851 10.1432 23.1317 10.5014 23.8774 10.9991L24.8535 10.023L26.7979 11.9674L25.8218 12.9435C26.3195 13.6891 26.6775 14.5359 26.859 15.4463H28.2388V18.196H26.8592C26.6777 19.1065 26.3195 19.953 25.8219 20.6988L26.7979 21.6748L24.8535 23.6191L23.8775 22.6431C23.1318 23.1409 22.2851 23.4989 21.3747 23.6805V25.0602H18.625V23.6805C17.7145 23.499 16.8679 23.1408 16.1221 22.6432L15.1461 23.6192L13.2018 21.6748L14.1778 20.6988C13.68 19.9531 13.322 19.1064 13.1404 18.196H11.7607V15.4463H13.1404C13.3218 14.5359 13.68 13.6892 14.1777 12.9435L13.2017 11.9675L15.1461 10.0231L16.1221 10.9991C16.8679 10.5014 17.7146 10.1434 18.625 9.96188L18.6249 8.58203Z" fill="#FF8A2D"/>
<path fill-rule="evenodd" clip-rule="evenodd" d="M20.4404 9.96094C21.5777 10.1876 22.6154 10.69 23.4811 11.3954L23.8774 10.9991C23.1317 10.5015 22.2851 10.1433 21.3746 9.9618V8.58203H20.4404V9.96094ZM24.8882 12.9429C25.3861 13.6887 25.7442 14.5356 25.9257 15.4462H26.8592C26.6776 14.5358 26.3196 13.6891 25.8219 12.9434L26.798 11.9673L24.8536 10.0229L24.3656 10.5109L25.8638 11.9673L24.8882 12.9429ZM25.9257 18.196C25.7443 19.1066 25.386 19.9535 24.8882 20.6994L25.8637 21.6748L24.3864 23.1521L24.8535 23.6192L26.7979 21.6748L25.8219 20.6988C26.3195 19.953 26.6777 19.1064 26.8592 18.196H25.9257ZM23.4811 22.2469C22.6154 22.9523 21.5776 23.4545 20.4404 23.6813V25.0602H21.3746V23.6805C22.285 23.499 23.1318 23.1409 23.8775 22.6432L23.4811 22.2469ZM27.3046 18.196H28.2389V15.4463H27.3046V18.196Z" fill="#FF6C00"/>
<path d="M19.9999 21.4422C22.5523 21.4422 24.6214 19.3731 24.6214 16.8207C24.6214 14.2683 22.5523 12.1992 19.9999 12.1992C17.4475 12.1992 15.3784 14.2683 15.3784 16.8207C15.3784 19.3731 17.4475 21.4422 19.9999 21.4422Z" fill="#EFF4F7"/>
<path fill-rule="evenodd" clip-rule="evenodd" d="M19.9999 12.1992C21.1444 12.1992 22.1916 12.6155 22.9988 13.3046C22.3483 12.9551 21.6046 12.7566 20.8144 12.7566C18.2621 12.7566 16.1929 14.8257 16.1929 17.378C16.1929 18.7859 16.8226 20.0465 17.8155 20.8941C16.3648 20.1146 15.3784 18.5829 15.3784 16.8207C15.3784 14.2683 17.4476 12.1992 19.9999 12.1992Z" fill="#E2E3E3"/>
<path fill-rule="evenodd" clip-rule="evenodd" d="M19.4192 20.0156C26.1583 28.3847 29.5278 32.5693 29.5278 32.5693C30.2135 33.255 30.2135 34.3767 29.5278 35.0625C28.842 35.7482 27.7203 35.7484 27.0345 35.0626C27.7202 35.7482 27.7202 36.87 27.0345 37.5557C26.3488 38.2414 25.227 38.2415 24.5414 37.5558L23.1815 36.1959C23.8672 36.8815 23.8671 38.0033 23.1815 38.689C22.4959 39.3746 21.374 39.3746 20.6883 38.6891L18.2885 36.2892C18.9742 36.9748 18.9742 38.0966 18.2884 38.7823C17.6028 39.468 16.4809 39.4679 15.7953 38.7823L5.96143 28.9486C5.96143 28.9486 6.62611 25.9709 7.95557 20.0156H19.4192Z" fill="#FFD6BD"/>
<path fill-rule="evenodd" clip-rule="evenodd" d="M19.419 20.0156L20.808 21.7406H7.57031L7.95539 20.0156H19.419Z" fill="#F9C6AA"/>
<path fill-rule="evenodd" clip-rule="evenodd" d="M21.2805 30.3164C21.0016 30.0376 21.0016 29.5855 21.2805 29.3068C21.5593 29.0279 22.0113 29.0279 22.2901 29.3068L27.1466 34.1633C27.4254 34.4422 27.4254 34.8942 27.1466 35.1729C26.8678 35.4518 26.4158 35.4518 26.137 35.1729L21.2805 30.3164ZM15.6994 34.708C15.4205 34.4293 15.4205 33.9772 15.6994 33.6984C15.9782 33.4197 16.4302 33.4197 16.709 33.6984L18.4124 35.4019C18.6912 35.6807 18.6912 36.1327 18.4124 36.4115C18.1336 36.6903 17.6815 36.6903 17.4027 36.4115L15.6994 34.708ZM18.4899 32.5122L22.284 36.3062C22.5627 36.585 23.0148 36.585 23.2936 36.3062C23.5723 36.0274 23.5723 35.5754 23.2936 35.2966L19.4996 31.5026C19.2208 31.2238 18.7687 31.2238 18.49 31.5026C18.2111 31.7813 18.2111 32.2333 18.4899 32.5122Z" fill="#F9C6AA"/>
<path fill-rule="evenodd" clip-rule="evenodd" d="M9.46144 19.0559L6.37589 18.4412C6.04464 18.3753 5.71972 18.5923 5.65371 18.9235L3.25597 30.9592C3.18996 31.2905 3.40699 31.6155 3.73824 31.6814L6.82371 32.2961C7.15503 32.3621 7.47996 32.1451 7.54597 31.8138L9.94371 19.7781C10.0097 19.447 9.79269 19.122 9.46144 19.0559Z" fill="#64B5F6"/>
<path fill-rule="evenodd" clip-rule="evenodd" d="M9.4615 19.0548L9.06884 18.9766L6.71415 30.7962C6.64814 31.1275 6.32321 31.3445 5.99196 31.2785L3.299 30.742L3.25595 30.958C3.19001 31.2892 3.40696 31.6142 3.73821 31.6802L6.82376 32.2949C7.15501 32.3609 7.47993 32.1439 7.54595 31.8127L9.94368 19.777C10.0097 19.4458 9.79267 19.1208 9.4615 19.0548Z" fill="#42A5F5"/>
<path fill-rule="evenodd" clip-rule="evenodd" d="M34.5912 28.2398C34.5061 28.2723 31.222 19.9758 31.1381 20.0072C27.9837 21.1859 25.5653 21.6157 22.3152 18.9344C21.287 18.0861 19.9008 17.992 18.8776 18.8461L14.7404 22.3004C14.2459 22.7132 13.9749 23.2872 14.1122 23.9165L15.3672 29.6674C18.558 28.8811 18.543 26.6106 18.7679 24.2233C18.8761 23.309 20.3536 23.5592 22.208 25.2489L29.8393 32.9914L34.5912 28.2398Z" fill="#F9C6AA"/>
<path fill-rule="evenodd" clip-rule="evenodd" d="M31.4165 20.6072L31.4084 20.588L31.4004 20.5691L31.3924 20.5505L31.3768 20.5141L31.3691 20.4963L31.3616 20.4788L31.3542 20.4615L31.3539 20.4608L31.3397 20.428L31.3326 20.4115L31.3255 20.3955L31.3186 20.3797L31.3118 20.3642L31.2986 20.334L31.2922 20.3194L31.2859 20.3051L31.2797 20.2911L31.2784 20.2881L31.2683 20.2653L31.2448 20.2129L31.238 20.1979L31.2163 20.1506L31.2118 20.1411C31.2043 20.125 31.1973 20.1103 31.1909 20.0969L31.1899 20.0948L31.1893 20.0937C31.1826 20.08 31.1766 20.0679 31.1711 20.0572L31.1697 20.0547C31.1586 20.0333 31.1501 20.0189 31.1445 20.0119L31.1443 20.0117C31.1415 20.0082 31.1394 20.0067 31.1382 20.0072L31.0736 20.0312L31.0677 20.0334L31.0618 20.0356L31.056 20.0378L31.0501 20.04L31.0443 20.0421L31.0384 20.0443L31.0334 20.0462L31.0326 20.0465L31.0267 20.0486L31.0208 20.0507L31.015 20.0529L31.0091 20.0551L31.0033 20.0572L30.9974 20.0593L30.9915 20.0614L30.9857 20.0635L30.9798 20.0656L30.974 20.0677L30.9623 20.072L30.9565 20.0741C30.8923 20.0976 30.8285 20.1208 30.765 20.1437C28.6872 20.8917 26.9122 21.2605 24.9676 20.5377C27.0891 21.704 28.9348 21.528 31.0565 20.8414C32.0347 23.2033 33.8238 27.6747 33.8863 27.6508L29.1973 32.3396L29.8394 32.991L34.5911 28.2396C34.5204 28.2669 32.2265 22.5066 31.4165 20.6072ZM16.1629 29.4159C18.5571 28.4655 18.5636 26.3926 18.7679 24.2232C18.862 23.4282 19.9915 23.5139 21.5037 24.6605L21.5033 24.6601C19.6488 22.9705 18.1713 22.7202 18.0631 23.6346C17.8761 25.6197 17.8544 27.5237 16.0182 28.5611L15.1044 24.374C14.9671 23.7447 15.2381 23.1707 15.7326 22.7579L19.8697 19.3036C20.5325 18.7502 21.3475 18.595 22.119 18.7847C21.1157 18.078 19.8369 18.0451 18.8776 18.8462L14.7404 22.3005C14.2459 22.7133 13.9749 23.2872 14.1122 23.9165L15.3672 29.6675C15.4165 29.6554 15.4649 29.6429 15.5126 29.6301L15.5162 29.629C15.5618 29.6167 15.6068 29.6041 15.6511 29.5912L15.6627 29.5877C15.7042 29.5755 15.7451 29.563 15.7854 29.5502L15.8045 29.5441C15.8416 29.5322 15.8782 29.5201 15.9143 29.5077L15.9443 29.4973C15.9765 29.4861 16.0083 29.4747 16.0397 29.4631L16.0756 29.4497C16.1051 29.4386 16.1342 29.4273 16.1629 29.4159Z" fill="#EAAB92"/>
<path fill-rule="evenodd" clip-rule="evenodd" d="M30.5386 19.0559L33.6241 18.4412C33.9554 18.3753 34.2803 18.5923 34.3462 18.9235L36.744 30.9592C36.8099 31.2905 36.593 31.6155 36.2618 31.6814L33.1762 32.2961C32.8449 32.3621 32.5199 32.1451 32.454 31.8138L30.0562 19.7781C29.9903 19.447 30.2073 19.122 30.5386 19.0559Z" fill="#FF8A2D"/>
<path fill-rule="evenodd" clip-rule="evenodd" d="M30.5385 19.0548L30.9311 18.9766L33.2858 30.7962C33.3518 31.1275 33.6767 31.3445 34.008 31.2785L36.701 30.742L36.744 30.958C36.8099 31.2892 36.593 31.6142 36.2617 31.6802L33.1762 32.2949C32.8449 32.3609 32.52 32.1439 32.454 31.8127L30.0563 19.777C29.9902 19.4458 30.2073 19.1208 30.5385 19.0548Z" fill="#FF6C00"/>
</g>
<defs>
<clipPath id="clip0_13_2470">
<rect width="40" height="40" fill="white"/>
</clipPath>
</defs>
</svg>
