<svg width="40" height="40" viewBox="0 0 40 40" fill="none" xmlns="http://www.w3.org/2000/svg">
<path fill-rule="evenodd" clip-rule="evenodd" d="M20.0001 18.5056C20.8907 18.5056 21.6126 19.2274 21.6126 20.1196C21.6126 20.822 21.1649 21.4173 20.5384 21.6392V24.2813C20.5384 24.5759 20.297 24.8196 20.0001 24.8196C19.7032 24.8196 19.4618 24.5759 19.4618 24.2813V21.6392C18.8353 21.4181 18.3876 20.822 18.3876 20.1196C18.3876 19.2274 19.1095 18.5056 20.0001 18.5056ZM24.8657 17.1548H15.1353V23.3603L15.1399 23.3649L19.9962 26.1688C19.9962 26.1688 19.9985 26.1712 20.0009 26.1712C20.0032 26.1712 20.0056 26.1688 20.0056 26.1688L24.8618 23.3649C24.8618 23.3649 24.8665 23.3626 24.8665 23.3603V17.1548H24.8657Z" fill="#FF695A"/>
<path fill-rule="evenodd" clip-rule="evenodd" d="M17.0596 15.2743V14.1868C17.0596 12.5704 18.3838 11.2478 20.0002 11.2478C21.6166 11.2478 22.9408 12.5696 22.9408 14.1868V15.2743H21.7385V14.1274C21.7385 13.1728 20.9564 12.3892 20.0002 12.3892C19.0439 12.3892 18.2619 13.1728 18.2619 14.1274V15.2743H17.0596ZM26.1479 15.872V23.3548C26.1479 23.829 25.9135 24.236 25.501 24.4712L20.6447 27.2774C20.2354 27.5142 19.7658 27.5142 19.3557 27.2774L14.4994 24.4712C14.09 24.2368 13.8525 23.829 13.8525 23.3548V15.872H26.1479ZM30.1275 9.93213V24.6056C30.1275 25.3853 29.74 26.0563 29.0643 26.4462L21.0627 31.0657C20.3869 31.4556 19.6119 31.4556 18.9369 31.0657L10.9354 26.4462C10.2596 26.0563 9.87207 25.3853 9.87207 24.6056V9.93291H30.1268L30.1275 9.93213ZM30.3908 18.8853H31.19H30.3908ZM14.8424 17.6673V22.329V17.6673ZM25.158 17.7009V22.2985V17.7009Z" fill="#2E3760"/>
<path fill-rule="evenodd" clip-rule="evenodd" d="M36.1024 17.5243C35.529 17.5243 35.0571 17.8657 34.8509 18.3548H31.1899V19.418H34.8485C35.0548 19.9055 35.5392 20.2485 36.1017 20.2485C36.8524 20.2485 37.461 19.6376 37.461 18.8868C37.461 18.136 36.8517 17.5251 36.1017 17.5251L36.1024 17.5243Z" fill="#FF695A"/>
<path fill-rule="evenodd" clip-rule="evenodd" d="M36.1024 12.5126C35.529 12.5126 35.0571 12.854 34.8509 13.343H31.1899V14.4063H34.8485C35.0548 14.8938 35.5392 15.2344 36.1017 15.2344C36.8524 15.2344 37.461 14.6251 37.461 13.8751C37.461 13.1251 36.8517 12.5134 36.1017 12.5134L36.1024 12.5126Z" fill="#FF695A"/>
<path fill-rule="evenodd" clip-rule="evenodd" d="M16.3507 34.9883C16.3507 34.4149 16.0093 33.943 15.5202 33.7368V30.3196L14.4569 29.7063V33.7344C13.9694 33.9407 13.6265 34.4235 13.6265 34.9875C13.6265 35.7383 14.2358 36.3469 14.9882 36.3469C15.7405 36.3469 16.3499 35.7375 16.3499 34.9875L16.3507 34.9883Z" fill="#FF695A"/>
<path fill-rule="evenodd" clip-rule="evenodd" d="M21.3619 37.3892C21.3619 36.8181 21.0205 36.3439 20.5314 36.1376V32.3751C20.1791 32.4368 19.8205 32.4368 19.4682 32.3751V36.1353C18.9807 36.3415 18.6377 36.8259 18.6377 37.3884C18.6377 38.1392 19.2486 38.7501 19.9994 38.7501C20.7502 38.7501 21.3611 38.1392 21.3611 37.3884L21.3619 37.3892Z" fill="#FF695A"/>
<path fill-rule="evenodd" clip-rule="evenodd" d="M26.3732 34.9883C26.3732 34.4149 26.0318 33.943 25.5428 33.7368V29.7063L24.4795 30.3196V33.7344C23.992 33.9407 23.6514 34.4235 23.6514 34.9875C23.6514 35.7383 24.2607 36.3469 25.0107 36.3469C25.7607 36.3469 26.3725 35.7375 26.3725 34.9875L26.3732 34.9883Z" fill="#FF695A"/>
<path fill-rule="evenodd" clip-rule="evenodd" d="M3.89766 22.536C4.47109 22.536 4.94297 22.8774 5.14922 23.3665H8.81016V24.4298H5.15156C4.94531 24.9173 4.4625 25.2602 3.89844 25.2602C3.14766 25.2602 2.53906 24.6509 2.53906 23.8985C2.53906 23.1462 3.14844 22.5368 3.89844 22.5368L3.89766 22.536Z" fill="#FF695A"/>
<path fill-rule="evenodd" clip-rule="evenodd" d="M3.89766 17.5243C4.47109 17.5243 4.94297 17.8657 5.14922 18.3548H8.81016V19.418H5.15156C4.94531 19.9055 4.4625 20.2485 3.89844 20.2485C3.14766 20.2485 2.53906 19.6376 2.53906 18.8868C2.53906 18.136 3.14844 17.5251 3.89844 17.5251L3.89766 17.5243Z" fill="#FF695A"/>
<path fill-rule="evenodd" clip-rule="evenodd" d="M3.89766 12.5126C4.47109 12.5126 4.94297 12.854 5.14922 13.343H8.81016V14.4063H5.15156C4.94531 14.8938 4.4625 15.2344 3.89844 15.2344C3.14766 15.2344 2.53906 14.6251 2.53906 13.8751C2.53906 13.1251 3.14844 12.5134 3.89844 12.5134L3.89766 12.5126Z" fill="#FF695A"/>
<path fill-rule="evenodd" clip-rule="evenodd" d="M31.1899 23.3665H34.8509C35.0571 22.8774 35.5282 22.536 36.1024 22.536C36.8532 22.536 37.4618 23.147 37.4618 23.8977C37.4618 24.6485 36.8524 25.2594 36.1024 25.2594C35.5399 25.2594 35.0548 24.9165 34.8493 24.429H31.1907V23.3657L31.1899 23.3665Z" fill="#FF695A"/>
<path fill-rule="evenodd" clip-rule="evenodd" d="M14.0938 8.86958V7.15552C14.0938 3.90474 16.7492 1.24927 20 1.24927C23.2508 1.24927 25.9063 3.90474 25.9063 7.15552V8.86958H23.7805V7.15552C23.7805 5.07817 22.0797 3.37505 20 3.37505C17.9203 3.37505 16.2195 5.07817 16.2195 7.15552V8.86958H14.0938Z" fill="#2E3760"/>
</svg>
