<svg width="25" height="25" viewBox="0 0 25 25" fill="none" xmlns="http://www.w3.org/2000/svg">
<path fill-rule="evenodd" clip-rule="evenodd" d="M13.7562 7.23333C14.3138 7.36603 14.846 7.58672 15.3335 7.88711L16.3585 7.4324L17.5661 8.64L17.1114 9.665C17.4118 10.1525 17.6325 10.6848 17.7652 11.2424L18.811 11.6449V13.3534L17.7652 13.756C17.6325 14.3128 17.4118 14.845 17.1114 15.3325L17.5661 16.3575L16.3585 17.5659L15.3335 17.1104C14.846 17.4108 14.3138 17.6323 13.7562 17.765L13.3537 18.81H11.6451L11.2425 17.7642C10.6857 17.6315 10.1535 17.4108 9.66598 17.1104L8.64098 17.5659L7.43259 16.3575L7.88808 15.3333C7.58769 14.845 7.36627 14.3128 7.23357 13.756L6.18848 13.3534V11.6449L7.23357 11.2424C7.36627 10.6848 7.58769 10.1525 7.88808 9.665L7.43259 8.64L8.64098 7.4324L9.66519 7.88711C10.1535 7.58672 10.6857 7.36603 11.2425 7.23333L11.6451 6.1875H13.3537L13.7562 7.23333Z" fill="#625FB2"/>
<path fill-rule="evenodd" clip-rule="evenodd" d="M16.0142 7.5852L16.3586 7.4324L17.5662 8.64L17.1115 9.665C17.4119 10.1525 17.6326 10.6848 17.7653 11.2424L18.8111 11.6449V13.3534L17.7653 13.756C17.6326 14.3128 17.4119 14.845 17.1115 15.3325L17.5662 16.3575L16.3586 17.5659L16.0142 17.4131L17.0698 16.3575L16.6143 15.3325C16.9147 14.845 17.1354 14.3128 17.2681 13.756L18.3139 13.3534V11.6449L17.2681 11.2424C17.1354 10.6848 16.9147 10.1525 16.6143 9.665L17.0698 8.64L16.0142 7.5852ZM8.48828 7.5852L8.64108 7.4324L9.66529 7.88711C9.59299 7.92735 9.52142 7.96912 9.45137 8.01309L8.48828 7.5852ZM13.7563 7.23333C14.3139 7.36603 14.8461 7.58672 15.3336 7.88711L15.0511 8.01309C14.5636 7.7127 13.8167 7.36603 13.2591 7.23333L12.8566 6.1875H13.3538L13.7563 7.23333ZM9.66607 17.1104L8.64108 17.5659L8.48828 17.4131L9.45137 16.9852C9.52142 17.0284 9.59299 17.0702 9.66607 17.1104ZM15.3336 17.1104C14.8461 17.4108 14.3139 17.6323 13.7563 17.765L13.3538 18.81H12.8566L13.2591 17.765C13.8167 17.6323 14.5636 17.2856 15.0519 16.9852L15.3336 17.1104Z" fill="#7E7BC6"/>
<path fill-rule="evenodd" clip-rule="evenodd" d="M12.4995 9.51953C14.1446 9.51953 15.4782 10.8531 15.4782 12.4982C15.4782 14.1427 14.1446 15.4762 12.4995 15.4762C10.855 15.4762 9.52148 14.1427 9.52148 12.4982C9.52148 10.8531 10.855 9.51953 12.4995 9.51953Z" fill="#ECEFF1"/>
<path fill-rule="evenodd" clip-rule="evenodd" d="M12.4995 9.51953C12.5673 9.51953 12.6344 9.52193 12.7016 9.52679C11.1508 9.63022 9.92443 10.9208 9.92443 12.4982C9.92443 14.0749 11.1508 15.3655 12.7016 15.4696C12.6344 15.4738 12.5673 15.4762 12.4995 15.4762C10.855 15.4762 9.52148 14.1427 9.52148 12.4982C9.52148 10.8531 10.855 9.51953 12.4995 9.51953Z" fill="#D1D1D6"/>
<path fill-rule="evenodd" clip-rule="evenodd" d="M5.22162 8.74982L3.29932 7.64002L3.69147 6.96075L5.61456 8.0711C6.24883 7.08742 7.08809 6.24811 8.07177 5.61384L6.96147 3.69075L7.64074 3.2986L8.75054 5.22085C9.76476 4.69688 10.9023 4.37874 12.1076 4.32178V2.10168H12.892V4.32178C14.0974 4.37874 15.2349 4.69688 16.2491 5.22085L17.3589 3.2986L18.0381 3.69075L16.9278 5.61384C17.9115 6.24811 18.7508 7.08742 19.3851 8.0711L21.3081 6.96075L21.7003 7.64002L19.778 8.74982C19.8359 8.86198 19.8913 8.97561 19.9441 9.09066C20.0344 9.28737 19.948 9.52036 19.7513 9.61066C19.5546 9.70095 19.3216 9.61453 19.2313 9.41781C18.0614 6.86894 15.4859 5.09683 12.4998 5.09683C9.51368 5.09683 6.93824 6.86894 5.76829 9.41781C5.67799 9.61453 5.445 9.70095 5.24829 9.61066C5.05157 9.52036 4.9652 9.28737 5.05549 9.09066C5.10829 8.97561 5.16368 8.86198 5.22162 8.74982ZM5.61456 16.9271L3.69147 18.0374L3.29932 17.3582L5.22162 16.2484C5.16368 16.1362 5.10829 16.0226 5.05549 15.9075C4.9652 15.7108 5.05157 15.4778 5.24829 15.3875C5.445 15.2972 5.67799 15.3836 5.76829 15.5804C6.93824 18.1292 9.51368 19.9013 12.4998 19.9013C15.4859 19.9013 18.0614 18.1292 19.2313 15.5804C19.3216 15.3836 19.5546 15.2972 19.7513 15.3875C19.948 15.4778 20.0344 15.7108 19.9441 15.9075C19.8913 16.0226 19.8359 16.1362 19.778 16.2484L21.7003 17.3582L21.3081 18.0374L19.3851 16.9271C18.7508 17.9108 17.9115 18.7501 16.9278 19.3843L18.0381 21.3074L17.3589 21.6996L16.2491 19.7773C15.2349 20.3013 14.0974 20.6194 12.892 20.6764V22.8965H12.1076V20.6764C10.9023 20.6194 9.76476 20.3013 8.75054 19.7773L7.64074 21.6996L6.96147 21.3074L8.07177 19.3843C7.08809 18.7501 6.24883 17.9108 5.61456 16.9271Z" fill="#595959"/>
<path fill-rule="evenodd" clip-rule="evenodd" d="M10.8667 12.8561C10.7137 12.7031 10.7137 12.4546 10.8667 12.3015C11.0198 12.1485 11.2683 12.1485 11.4213 12.3015L11.9486 12.8288L13.5941 11.336C13.7544 11.1906 14.0027 11.2027 14.1481 11.363C14.2935 11.5233 14.2814 11.7715 14.1211 11.9169L12.1989 13.6607C12.044 13.8012 11.806 13.7954 11.6581 13.6475L10.8667 12.8561Z" fill="#92F785"/>
<path fill-rule="evenodd" clip-rule="evenodd" d="M12.4999 0.734375C13.0924 0.734375 13.5734 1.2154 13.5734 1.8079C13.5734 2.4004 13.0924 2.88143 12.4999 2.88143C11.9074 2.88143 11.4263 2.4004 11.4263 1.8079C11.4263 1.2154 11.9074 0.734375 12.4999 0.734375ZM12.4999 24.2638C11.9074 24.2638 11.4263 23.7828 11.4263 23.1903C11.4263 22.5978 11.9074 22.1167 12.4999 22.1167C13.0924 22.1167 13.5734 22.5978 13.5734 23.1903C13.5734 23.7828 13.0924 24.2638 12.4999 24.2638ZM6.61751 22.6876C6.10438 22.3914 5.9283 21.7343 6.22457 21.2211C6.5208 20.708 7.17791 20.5319 7.69104 20.8282C8.20418 21.1244 8.38026 21.7815 8.08398 22.2947C7.78776 22.8078 7.13065 22.9839 6.61751 22.6876ZM2.31134 18.3814C2.01506 17.8683 2.19114 17.2112 2.70428 16.915C3.21742 16.6187 3.87452 16.7948 4.17075 17.3079C4.46702 17.821 4.29095 18.4781 3.77781 18.7744C3.26467 19.0707 2.60756 18.8946 2.31134 18.3814ZM18.3822 22.6876C17.8691 22.9839 17.212 22.8078 16.9158 22.2947C16.6195 21.7815 16.7956 21.1244 17.3087 20.8282C17.8218 20.5319 18.4789 20.708 18.7752 21.2211C19.0714 21.7343 18.8954 22.3914 18.3822 22.6876ZM22.6884 18.3814C22.3922 18.8946 21.7351 19.0707 21.2219 18.7744C20.7088 18.4781 20.5327 17.821 20.829 17.3079C21.1252 16.7948 21.7823 16.6187 22.2955 16.915C22.8086 17.2112 22.9847 17.8683 22.6884 18.3814ZM6.61751 2.31055C7.13065 2.01428 7.78776 2.19036 8.08398 2.70349C8.38026 3.21663 8.20418 3.87374 7.69104 4.16996C7.17791 4.46624 6.5208 4.29016 6.22457 3.77702C5.9283 3.26388 6.10438 2.60678 6.61751 2.31055ZM2.31134 6.61673C2.60756 6.10359 3.26467 5.92751 3.77781 6.22379C4.29095 6.52001 4.46702 7.17712 4.17075 7.69026C3.87452 8.20339 3.21742 8.37947 2.70428 8.0832C2.19114 7.78697 2.01506 7.12987 2.31134 6.61673ZM18.3822 2.31055C18.8954 2.60678 19.0714 3.26388 18.7752 3.77702C18.4789 4.29016 17.8218 4.46624 17.3087 4.16996C16.7956 3.87374 16.6195 3.21663 16.9158 2.70349C17.212 2.19036 17.8691 2.01428 18.3822 2.31055ZM22.6884 6.61673C22.9847 7.12987 22.8086 7.78697 22.2955 8.0832C21.7823 8.37947 21.1252 8.20339 20.829 7.69026C20.5327 7.17712 20.7088 6.52001 21.2219 6.22379C21.7351 5.92751 22.3922 6.10359 22.6884 6.61673Z" fill="#92F785"/>
<path fill-rule="evenodd" clip-rule="evenodd" d="M12.2549 0.762512C12.3336 0.74413 12.4157 0.734375 12.5 0.734375C13.0925 0.734375 13.5735 1.2154 13.5735 1.8079C13.5735 2.4004 13.0925 2.88143 12.5 2.88143C12.4157 2.88143 12.3336 2.87173 12.2549 2.8533C12.7294 2.74232 13.0833 2.31609 13.0833 1.8079C13.0833 1.29972 12.7294 0.873542 12.2549 0.762512ZM12.2549 22.1449C12.3336 22.1264 12.4157 22.1167 12.5 22.1167C13.0925 22.1167 13.5735 22.5978 13.5735 23.1903C13.5735 23.7828 13.0925 24.2638 12.5 24.2638C12.4157 24.2638 12.3336 24.254 12.2549 24.2356C12.7294 24.1246 13.0833 23.6984 13.0833 23.1903C13.0833 22.6821 12.7294 22.2558 12.2549 22.1449ZM6.91022 20.7127C7.16659 20.6528 7.44536 20.6863 7.69115 20.8282C8.20428 21.1244 8.38036 21.7815 8.08409 22.2947C7.84164 22.7146 7.35747 22.9088 6.90835 22.8031C7.18723 22.7379 7.43953 22.562 7.59389 22.2947C7.89017 21.7815 7.71409 21.1244 7.20095 20.8282C7.10776 20.7744 7.00987 20.7362 6.91022 20.7127ZM2.99512 16.7995C3.44423 16.6938 3.9284 16.888 4.17085 17.3079C4.46713 17.821 4.29105 18.4781 3.77791 18.7744C3.53213 18.9163 3.2533 18.9498 2.99698 18.8899C3.09664 18.8664 3.19453 18.8281 3.28772 18.7744C3.80085 18.4781 3.97693 17.821 3.68066 17.3079C3.52629 17.0406 3.27399 16.8647 2.99512 16.7995ZM17.5995 20.7127C18.0486 20.607 18.5328 20.8012 18.7753 21.2211C19.0715 21.7343 18.8955 22.3914 18.3823 22.6876C18.1365 22.8295 17.8577 22.8631 17.6014 22.8031C17.701 22.7796 17.7989 22.7414 17.8921 22.6876C18.4053 22.3914 18.5813 21.7343 18.2851 21.2211C18.1307 20.9538 17.8784 20.778 17.5995 20.7127ZM21.5146 16.7995C21.771 16.7395 22.0498 16.7731 22.2956 16.915C22.8087 17.2112 22.9848 17.8683 22.6885 18.3814C22.446 18.8014 21.9619 18.9956 21.5128 18.8899C21.7916 18.8246 22.0439 18.6488 22.1983 18.3814C22.4946 17.8683 22.3185 17.2112 21.8054 16.915C21.7122 16.8611 21.6143 16.823 21.5146 16.7995ZM6.90835 2.19506C7.35747 2.08938 7.84164 2.28354 8.08409 2.70349C8.38036 3.21663 8.20428 3.87374 7.69115 4.16996C7.44536 4.31188 7.16659 4.3454 6.91022 4.28545C7.00987 4.26197 7.10776 4.22379 7.20095 4.16996C7.71409 3.87374 7.89017 3.21663 7.59389 2.70349C7.43953 2.43614 7.18723 2.26031 6.90835 2.19506ZM2.99698 6.1083C3.2533 6.04835 3.53213 6.08188 3.77791 6.22379C4.29105 6.52001 4.46713 7.17712 4.17085 7.69026C3.9284 8.11021 3.44423 8.30438 2.99512 8.19869C3.27399 8.13344 3.52629 7.95761 3.68066 7.69026C3.97693 7.17712 3.80085 6.52001 3.28772 6.22379C3.19453 6.17001 3.09664 6.13178 2.99698 6.1083ZM17.6014 2.19506C17.8577 2.13511 18.1365 2.16864 18.3823 2.31055C18.8955 2.60678 19.0715 3.26388 18.7753 3.77702C18.5328 4.19697 18.0486 4.39114 17.5995 4.28545C17.8784 4.22021 18.1307 4.04437 18.2851 3.77702C18.5813 3.26388 18.4053 2.60678 17.8921 2.31055C17.7989 2.25673 17.701 2.21854 17.6014 2.19506ZM21.5128 6.1083C21.9619 6.00261 22.446 6.19678 22.6885 6.61673C22.9848 7.12987 22.8087 7.78697 22.2956 8.0832C22.0498 8.22511 21.771 8.25864 21.5146 8.19869C21.6143 8.17521 21.7122 8.13702 21.8054 8.0832C22.3185 7.78697 22.4946 7.12987 22.1983 6.61673C22.0439 6.34938 21.7916 6.17354 21.5128 6.1083Z" fill="#69DE5A"/>
</svg>
