<svg width="25" height="25" viewBox="0 0 25 25" fill="none" xmlns="http://www.w3.org/2000/svg">
<path d="M19.3447 11.832C22.1763 11.832 24.4717 9.53662 24.4717 6.70508C24.4717 3.87354 22.1763 1.57812 19.3447 1.57812C16.5132 1.57812 14.2178 3.87354 14.2178 6.70508C14.2178 9.53662 16.5132 11.832 19.3447 11.832Z" fill="#F9AC00"/>
<path fill-rule="evenodd" clip-rule="evenodd" d="M19.1846 11.8305C16.4272 11.7458 14.2178 9.48418 14.2178 6.70625C14.2178 3.92832 16.4271 1.6667 19.1846 1.58203C21.942 1.66665 24.1514 3.92832 24.1514 6.70625C24.1514 9.48418 21.9419 11.7458 19.1846 11.8305Z" fill="#FDC72E"/>
<path d="M20.0102 10.7481C22.24 10.3821 23.7509 8.27778 23.3849 6.04799C23.0189 3.8182 20.9147 2.30728 18.6849 2.67326C16.4551 3.03925 14.9441 5.14354 15.3101 7.37334C15.6761 9.60313 17.7804 11.114 20.0102 10.7481Z" fill="#F19A00"/>
<path fill-rule="evenodd" clip-rule="evenodd" d="M19.6077 2.625C21.7442 2.76069 23.4352 4.53618 23.4352 6.70688C23.4352 8.87759 21.7442 10.6531 19.6077 10.7888C17.4712 10.6531 15.7803 8.87764 15.7803 6.70688C15.7803 4.53613 17.4712 2.76064 19.6077 2.625Z" fill="#F9AC00"/>
<path fill-rule="evenodd" clip-rule="evenodd" d="M7.36665 7.08594C4.37348 8.26616 1.82431 12.4747 0.900533 16.0578C-0.649125 22.0684 2.79013 23.3151 8.4288 23.4135C14.0675 23.3151 17.5067 22.0684 15.9571 16.0578C15.0333 12.4747 12.4841 8.26611 9.49096 7.08594H7.36665Z" fill="#6E6CBB"/>
<path fill-rule="evenodd" clip-rule="evenodd" d="M9.3461 23.3857C14.4334 23.162 17.4209 21.735 15.9572 16.0579C15.0334 12.4748 12.4842 8.26616 9.49107 7.08594H9.20113C6.20791 8.26616 3.65879 12.4748 2.73496 16.0579C1.27129 21.735 4.25879 23.162 9.3461 23.3857Z" fill="#625FB2"/>
<path fill-rule="evenodd" clip-rule="evenodd" d="M9.27819 7.80929L10.8125 7.81378C14.2835 3.05992 13.4655 1.3672 11.8533 1.86876C11.3768 2.017 11.0795 2.26979 10.8285 2.47638C10.3791 2.8465 10.0209 3.01891 9.63732 2.47448C8.80256 1.28976 8.0549 1.28976 7.22013 2.47448C6.83654 3.01891 6.47834 2.84645 6.02892 2.47638C5.77799 2.26979 5.48073 2.017 5.00417 1.86876C3.39196 1.36725 2.57394 3.05997 6.04494 7.81378L7.57926 7.80929C7.89977 7.81124 8.16423 7.81217 8.42873 7.81217C8.69323 7.81217 8.95768 7.81124 9.27819 7.80929Z" fill="#6E6CBB"/>
<path fill-rule="evenodd" clip-rule="evenodd" d="M9.27833 7.80933L9.34606 7.80952L9.41378 7.80933L9.56056 7.81016L10.2633 7.81221C10.4414 7.81221 10.6195 7.81182 10.8148 7.81089C14.2833 3.05928 13.4653 1.36733 11.8535 1.8688C11.3769 2.01704 11.0797 2.26978 10.8287 2.47642C10.3793 2.84653 10.0211 3.01895 9.63751 2.47451C8.80275 1.28975 8.05509 1.28975 7.22033 2.47451C6.83673 3.01895 6.47853 2.84653 6.02912 2.47642C5.90495 2.37417 5.76935 2.2606 5.60636 2.154C5.16696 2.87466 5.58991 4.67729 7.87736 7.81089C8.07262 7.81177 8.25075 7.81221 8.42887 7.81221L9.13161 7.81016L9.27838 7.80933H9.27833Z" fill="#625FB2"/>
<path d="M11.5153 6.92969H5.34185C4.85533 6.92969 4.46094 7.32408 4.46094 7.8106C4.46094 8.29711 4.85533 8.6915 5.34185 8.6915H11.5153C12.0018 8.6915 12.3962 8.29711 12.3962 7.8106C12.3962 7.32408 12.0018 6.92969 11.5153 6.92969Z" fill="#DBDBDB"/>
<path fill-rule="evenodd" clip-rule="evenodd" d="M6.83208 6.92969H11.5154C11.9999 6.92969 12.3963 7.32607 12.3963 7.8106C12.3963 8.29512 11.9999 8.69155 11.5154 8.69155H6.83208C6.34756 8.69155 5.95117 8.29517 5.95117 7.81069C5.95117 7.32622 6.34751 6.92974 6.83208 6.92974V6.92969Z" fill="white"/>
<path fill-rule="evenodd" clip-rule="evenodd" d="M20.7647 5.46997C20.7889 5.60215 20.7013 5.72895 20.5691 5.75322C20.437 5.77744 20.3102 5.68989 20.2859 5.55771C20.2527 5.37832 20.1568 5.2375 20.0262 5.13545C19.9081 5.04321 19.7606 4.98052 19.6026 4.94746C19.5946 4.9458 19.5865 4.94419 19.5785 4.94268V6.54668C19.6256 6.56118 19.6716 6.57598 19.716 6.5915C20.0695 6.71499 20.3876 6.90171 20.5815 7.17749C20.7553 7.42451 20.8273 7.73013 20.7378 8.10645C20.6575 8.44399 20.4177 8.68667 20.1062 8.8291C19.9453 8.90269 19.7648 8.94888 19.5785 8.96665V9.49629C19.5785 9.6311 19.4692 9.74043 19.3344 9.74043C19.1996 9.74043 19.0902 9.6311 19.0902 9.49629V8.94844C18.9099 8.91772 18.734 8.86006 18.5752 8.77456C18.2402 8.59429 17.9788 8.29404 17.8975 7.86548C17.8728 7.7333 17.9599 7.60605 18.092 7.5813C18.2242 7.55654 18.3515 7.64365 18.3762 7.77583C18.4268 8.04214 18.5927 8.23062 18.806 8.34541C18.8943 8.39297 18.9905 8.42847 19.0902 8.45215V6.90942C18.8113 6.82397 18.5324 6.71807 18.3198 6.51533C18.0901 6.29629 17.9702 6.02329 17.9486 5.74731C17.926 5.45771 18.0136 5.16533 18.1976 4.92974C18.3939 4.67842 18.6941 4.52266 19.0207 4.46226C19.0438 4.45801 19.0669 4.4542 19.0902 4.45088V3.91211C19.0902 3.77729 19.1995 3.66797 19.3343 3.66797C19.4691 3.66797 19.5785 3.77729 19.5785 3.91211V4.44932C19.6199 4.45493 19.661 4.46196 19.7018 4.47046C19.9294 4.51802 20.1462 4.61177 20.3256 4.75186C20.546 4.92397 20.708 5.16313 20.7647 5.46978L20.7647 5.46997ZM19.0901 4.94463C18.8819 4.98647 18.6962 5.08159 18.5809 5.2293C18.4729 5.36753 18.4216 5.53989 18.435 5.71118C18.4475 5.87187 18.5187 6.03218 18.6554 6.16255C18.7637 6.26577 18.92 6.33813 19.0901 6.3977V4.94463ZM19.5784 8.4771C19.6946 8.46196 19.8054 8.43164 19.904 8.38657C20.0838 8.3043 20.2205 8.17173 20.2628 7.9939C20.3163 7.76899 20.2784 7.5937 20.1829 7.45781C20.0582 7.28061 19.8349 7.15156 19.5784 7.05918V8.47715V8.4771Z" fill="#FCDB35"/>
<path fill-rule="evenodd" clip-rule="evenodd" d="M10.3647 14.3525C10.3889 14.4847 10.3014 14.6115 10.1692 14.6357C10.037 14.6599 9.91021 14.5724 9.88599 14.4402C9.83375 14.1577 9.68311 13.9362 9.47793 13.776C9.29673 13.6344 9.07188 13.5385 8.83209 13.4884C8.7796 13.4774 8.72652 13.4687 8.6731 13.4621V15.9439C8.76456 15.9712 8.85372 15.9991 8.93868 16.0288C9.42364 16.1982 9.8585 16.4523 10.1209 16.8254C10.3518 17.1537 10.447 17.5613 10.3272 18.0652C10.221 18.5122 9.90118 18.8344 9.48541 19.0246C9.23985 19.1369 8.96016 19.2022 8.6731 19.2188V20.0688C8.6731 20.2036 8.56377 20.3129 8.42896 20.3129C8.29415 20.3129 8.18482 20.2036 8.18482 20.0688V19.1999C7.90875 19.1626 7.63819 19.0798 7.39659 18.9498C6.94527 18.7068 6.59322 18.3029 6.48394 17.7269C6.45918 17.5947 6.54629 17.4675 6.67847 17.4427C6.81065 17.418 6.9379 17.5051 6.96265 17.6373C7.04112 18.051 7.29776 18.3432 7.62735 18.5206C7.79849 18.6127 7.98882 18.6748 8.18477 18.7079V16.3077C7.77505 16.1853 7.36001 16.0388 7.05503 15.748C6.74756 15.4548 6.58716 15.0898 6.55835 14.7212C6.52813 14.3338 6.64512 13.9428 6.89107 13.628C7.15425 13.2911 7.55923 13.0818 8.00074 13.0001C8.06138 12.9889 8.12281 12.9801 8.18472 12.9737V12.115C8.18472 11.9802 8.29405 11.8708 8.42886 11.8708C8.56368 11.8708 8.673 11.9802 8.673 12.115V12.9722C8.75987 12.9807 8.8462 12.9937 8.93116 13.0115C9.24058 13.0762 9.53477 13.2031 9.77725 13.3926C10.072 13.6229 10.2889 13.9427 10.3647 14.3525ZM8.18482 13.4638C8.1525 13.4681 8.12042 13.4731 8.08858 13.479C7.75796 13.5402 7.46011 13.69 7.27452 13.9275C7.10455 14.1451 7.02378 14.4161 7.04478 14.6852C7.06456 14.9385 7.17627 15.1908 7.39073 15.3953C7.58799 15.5834 7.87969 15.7015 8.18482 15.7987V13.4638ZM8.6731 18.7312C8.89102 18.7158 9.10064 18.6656 9.28326 18.5821C9.56739 18.4521 9.78399 18.2399 9.8523 17.9527C9.93614 17.6002 9.87496 17.3229 9.72222 17.1058C9.52554 16.8262 9.17579 16.6273 8.77842 16.4885C8.74395 16.4764 8.70879 16.4647 8.6731 16.4532V18.7312Z" fill="white"/>
<path d="M14.9145 17.6758H23.7542C24.1388 17.6758 24.451 17.988 24.451 18.3725V19.8531C24.451 20.2376 24.1388 20.5498 23.7542 20.5498H14.9145C14.5299 20.5498 14.2178 20.2376 14.2178 19.8531V18.3725C14.2178 17.988 14.53 17.6758 14.9145 17.6758H14.9145Z" fill="#F19A00"/>
<path d="M14.9145 20.5469H23.7542C24.1388 20.5469 24.451 20.8591 24.451 21.2436V22.7242C24.451 23.1087 24.1388 23.4209 23.7542 23.4209H14.9145C14.5299 23.4209 14.2178 23.1087 14.2178 22.7242V21.2436C14.2178 20.8591 14.5299 20.5469 14.9145 20.5469V20.5469Z" fill="#FDC72E"/>
<path d="M14.9144 14.8007H23.7542C24.1387 14.8007 24.4509 15.1129 24.4509 15.4974V16.978C24.4509 17.3625 24.1387 17.6746 23.7542 17.6746H14.9145C14.5299 17.6746 14.2178 17.3625 14.2178 16.978V15.4973C14.2178 15.1128 14.5299 14.8007 14.9145 14.8007H14.9144Z" fill="#FDC72E"/>
<path d="M14.9145 11.9258H23.7542C24.1388 11.9258 24.451 12.238 24.451 12.6225V14.1031C24.451 14.4876 24.1388 14.7998 23.7542 14.7998H14.9145C14.5299 14.7998 14.2178 14.4876 14.2178 14.1031V12.6225C14.2178 12.238 14.5299 11.9258 14.9145 11.9258Z" fill="#F19A00"/>
<path fill-rule="evenodd" clip-rule="evenodd" d="M14.9145 11.9258H22.7541C22.8617 11.9258 22.9495 12.0136 22.9495 12.1212V13.5904C22.9495 13.9735 22.636 14.2871 22.2528 14.2871H14.4132C14.3056 14.2871 14.2178 14.1993 14.2178 14.0917V12.6225C14.2178 12.2393 14.5313 11.9258 14.9145 11.9258L14.9145 11.9258Z" fill="#F9AC00"/>
<path fill-rule="evenodd" clip-rule="evenodd" d="M14.9145 14.8008H22.7541C22.8617 14.8008 22.9495 14.8886 22.9495 14.9962V16.4654C22.9495 16.8485 22.636 17.1621 22.2528 17.1621H14.4132C14.3056 17.1621 14.2178 17.0743 14.2178 16.9667V15.4975C14.2178 15.1143 14.5313 14.8008 14.9145 14.8008L14.9145 14.8008Z" fill="#FCDB35"/>
<path fill-rule="evenodd" clip-rule="evenodd" d="M14.9145 17.6719H22.7541C22.8617 17.6719 22.9495 17.7597 22.9495 17.8673V19.3365C22.9495 19.7196 22.636 20.0332 22.2528 20.0332H14.4132C14.3056 20.0332 14.2178 19.9454 14.2178 19.8377V18.3686C14.2178 17.9854 14.5313 17.6719 14.9145 17.6719L14.9145 17.6719Z" fill="#F9AC00"/>
<path fill-rule="evenodd" clip-rule="evenodd" d="M14.9145 20.5469H22.7541C22.8617 20.5469 22.9495 20.6347 22.9495 20.7423V22.2115C22.9495 22.5946 22.636 22.9082 22.2528 22.9082H14.4132C14.3056 22.9082 14.2178 22.8204 14.2178 22.7127V21.2436C14.2178 20.8604 14.5313 20.5469 14.9145 20.5469L14.9145 20.5469Z" fill="#FCDB35"/>
</svg>
