<svg width="25" height="25" viewBox="0 0 25 25" fill="none" xmlns="http://www.w3.org/2000/svg">
<g clip-path="url(#clip0_13_2892)">
<path d="M20.0776 15.3555H20.8101V16.9642H20.0776V15.3555Z" fill="#625FB2"/>
<path d="M20.0776 20.121H20.8101V21.7297H20.0776V20.121Z" fill="#625FB2"/>
<path d="M20.4438 6.64062C20.2416 6.64062 20.0776 6.80459 20.0776 7.00684V7.59277C20.0776 7.79502 20.2416 7.95898 20.4438 7.95898C20.6461 7.95898 20.8101 7.79502 20.8101 7.59277V7.00684C20.8101 6.80459 20.6461 6.64062 20.4438 6.64062Z" fill="#625FB2"/>
<path d="M18.9627 4.76953H18.2368C18.247 4.90088 18.2527 5.03291 18.2527 5.16431C18.2527 5.27666 18.2486 5.3895 18.2412 5.50195H18.9627C19.165 5.50195 19.329 5.33799 19.329 5.13574C19.329 4.9335 19.165 4.76953 18.9627 4.76953Z" fill="#625FB2"/>
<path d="M20.4358 6.1515C20.4527 6.1515 20.4697 6.15033 20.4868 6.14794C20.6871 6.12006 20.8269 5.9351 20.7991 5.73476C20.7584 5.44247 20.6067 5.18207 20.372 5.0015C20.2116 4.87816 19.9817 4.90819 19.8584 5.0685C19.7351 5.2288 19.7651 5.45873 19.9254 5.58207C20.0069 5.64477 20.0596 5.73485 20.0736 5.83573C20.0991 6.01894 20.256 6.1515 20.4358 6.1515Z" fill="#625FB2"/>
<path d="M20.4438 10.2539C20.2416 10.2539 20.0776 10.4179 20.0776 10.6201V11.2061C20.0776 11.4083 20.2416 11.5723 20.4438 11.5723C20.6461 11.5723 20.8101 11.4083 20.8101 11.2061V10.6201C20.8101 10.4179 20.6461 10.2539 20.4438 10.2539Z" fill="#625FB2"/>
<path d="M20.4438 8.44531C20.2416 8.44531 20.0776 8.60928 20.0776 8.81152V9.39746C20.0776 9.59971 20.2416 9.76367 20.4438 9.76367C20.6461 9.76367 20.8101 9.59971 20.8101 9.39746V8.81152C20.8101 8.60928 20.6461 8.44531 20.4438 8.44531Z" fill="#625FB2"/>
<path d="M9 22.9453H8.41406C8.21182 22.9453 8.04785 23.1093 8.04785 23.3115C8.04785 23.5138 8.21182 23.6777 8.41406 23.6777H9C9.20225 23.6777 9.36621 23.5138 9.36621 23.3115C9.36621 23.1093 9.20225 22.9453 9 22.9453Z" fill="#625FB2"/>
<path d="M7.19328 22.9461H7.16994C7.07199 22.9461 6.97849 22.9096 6.90661 22.8432C6.75808 22.706 6.52634 22.7153 6.38913 22.8639C6.25192 23.0125 6.2612 23.2442 6.40978 23.3814C6.61735 23.573 6.88732 23.6786 7.16994 23.6786H7.19328C7.39553 23.6786 7.55949 23.5146 7.55949 23.3123C7.55949 23.1101 7.39553 22.9461 7.19328 22.9461Z" fill="#625FB2"/>
<path d="M6.78174 21.96V21.374C6.78174 21.1718 6.61777 21.0078 6.41553 21.0078C6.21328 21.0078 6.04932 21.1718 6.04932 21.374V21.96C6.04932 22.1622 6.21328 22.3262 6.41553 22.3262C6.61777 22.3262 6.78174 22.1622 6.78174 21.96Z" fill="#625FB2"/>
<path d="M6.41553 20.5176C6.61777 20.5176 6.78174 20.3536 6.78174 20.1514V19.5654C6.78174 19.3632 6.61777 19.1992 6.41553 19.1992C6.21328 19.1992 6.04932 19.3632 6.04932 19.5654V20.1514C6.04932 20.3536 6.21328 20.5176 6.41553 20.5176Z" fill="#625FB2"/>
<path d="M12.6133 22.9453H12.0273C11.8251 22.9453 11.6611 23.1093 11.6611 23.3115C11.6611 23.5138 11.8251 23.6777 12.0273 23.6777H12.6133C12.8156 23.6777 12.9795 23.5138 12.9795 23.3115C12.9795 23.1093 12.8156 22.9453 12.6133 22.9453Z" fill="#625FB2"/>
<path d="M15.9361 22.9453H15.6406C15.4383 22.9453 15.2744 23.1093 15.2744 23.3115C15.2744 23.5138 15.4383 23.6777 15.6406 23.6777H15.9361V22.9453Z" fill="#625FB2"/>
<path d="M14.4199 22.9453H13.834C13.6317 22.9453 13.4678 23.1093 13.4678 23.3115C13.4678 23.5138 13.6317 23.6777 13.834 23.6777H14.4199C14.6222 23.6777 14.7861 23.5138 14.7861 23.3115C14.7861 23.1093 14.6222 22.9453 14.4199 22.9453Z" fill="#625FB2"/>
<path d="M10.8066 22.9453H10.2207C10.0185 22.9453 9.85449 23.1093 9.85449 23.3115C9.85449 23.5138 10.0185 23.6777 10.2207 23.6777H10.8066C11.0089 23.6777 11.1729 23.5138 11.1729 23.3115C11.1729 23.1093 11.0089 22.9453 10.8066 22.9453Z" fill="#625FB2"/>
<path d="M8.12192 18.4252C8.12192 16.8231 9.42529 15.5198 11.0273 15.5198C11.0306 15.5198 11.0338 15.5201 11.037 15.5201V8.49102L10.4074 9.12065C10.3616 9.16645 10.3008 9.19165 10.2361 9.19165C10.1826 9.19165 10.1321 9.17437 10.0902 9.14155C9.76675 8.88828 9.47427 8.59585 9.221 8.27231C9.14683 8.17759 9.15586 8.04126 9.24189 7.95518L9.97515 7.22192C10.0803 7.1168 10.1039 6.95649 10.0338 6.8231C9.93379 6.63262 9.85063 6.43164 9.78662 6.22588C9.74185 6.08208 9.61191 5.9855 9.46318 5.9855H8.42578C8.3041 5.9855 8.20137 5.89551 8.18682 5.77617C8.16211 5.5731 8.14956 5.36626 8.14956 5.16138C8.14956 5.15186 8.14995 5.14233 8.15 5.13281H2.44854C2.31514 5.13281 2.18721 5.18579 2.09287 5.28013L0.147314 7.22568C0.0529785 7.32002 0 7.44795 0 7.58135V18.4534C0 18.7312 0.225195 18.9564 0.503027 18.9564H8.17148C8.13945 18.7841 8.12192 18.6067 8.12192 18.4252Z" fill="#625FB2"/>
<path d="M2.08755 18.4535V7.5814C2.08755 7.448 2.14053 7.32002 2.23486 7.22568L4.18042 5.28013C4.27476 5.18579 4.40269 5.13281 4.53608 5.13281H2.44854C2.31514 5.13281 2.18721 5.18579 2.09287 5.28013L0.147314 7.22573C0.0529785 7.32007 0 7.448 0 7.5814V18.4535C0 18.7313 0.225195 18.9565 0.503027 18.9565H2.59058C2.31274 18.9565 2.08755 18.7313 2.08755 18.4535Z" fill="#8987C9"/>
<path d="M8.13462 9.0293H2.90234C2.7001 9.0293 2.53613 8.86533 2.53613 8.66309C2.53613 8.46084 2.7001 8.29688 2.90234 8.29688H8.13462C8.33687 8.29688 8.50083 8.46084 8.50083 8.66309C8.50083 8.86533 8.33687 9.0293 8.13462 9.0293Z" fill="white"/>
<path d="M8.13462 10.8574H2.90234C2.7001 10.8574 2.53613 10.6935 2.53613 10.4912C2.53613 10.289 2.7001 10.125 2.90234 10.125H8.13462C8.33687 10.125 8.50083 10.289 8.50083 10.4912C8.50083 10.6935 8.33687 10.8574 8.13462 10.8574Z" fill="white"/>
<path d="M8.13462 12.6777H2.90234C2.7001 12.6777 2.53613 12.5138 2.53613 12.3115C2.53613 12.1093 2.7001 11.9453 2.90234 11.9453H8.13462C8.33687 11.9453 8.50083 12.1093 8.50083 12.3115C8.50083 12.5138 8.33687 12.6777 8.13462 12.6777Z" fill="white"/>
<path d="M8.13462 14.5137H2.90234C2.7001 14.5137 2.53613 14.3497 2.53613 14.1475C2.53613 13.9452 2.7001 13.7812 2.90234 13.7812H8.13462C8.33687 13.7812 8.50083 13.9452 8.50083 14.1475C8.50083 14.3497 8.33687 14.5137 8.13462 14.5137Z" fill="white"/>
<path d="M5.24785 16.3418H2.90234C2.7001 16.3418 2.53613 16.1778 2.53613 15.9756C2.53613 15.7733 2.7001 15.6094 2.90234 15.6094H5.24785C5.4501 15.6094 5.61406 15.7733 5.61406 15.9756C5.61406 16.1778 5.4501 16.3418 5.24785 16.3418Z" fill="white"/>
<path d="M11.0272 21.381C12.6588 21.381 13.9815 20.0584 13.9815 18.4268C13.9815 16.7952 12.6588 15.4725 11.0272 15.4725C9.39566 15.4725 8.073 16.7952 8.073 18.4268C8.073 20.0584 9.39566 21.381 11.0272 21.381Z" fill="#05E39C"/>
<path d="M9.7604 18.4268C9.7604 17.0885 10.6506 15.9586 11.8709 15.5955C11.6035 15.5159 11.3205 15.4725 11.0272 15.4725C9.39565 15.4725 8.073 16.7952 8.073 18.4268C8.073 20.0584 9.39565 21.381 11.0272 21.381C11.3205 21.381 11.6035 21.3377 11.8709 21.2581C10.6506 20.8949 9.7604 19.7651 9.7604 18.4268Z" fill="#0ED290"/>
<path d="M10.8397 19.6302C10.746 19.6302 10.6522 19.5945 10.5807 19.5229L9.43319 18.3754C9.29017 18.2324 9.29017 18.0005 9.43319 17.8575C9.57621 17.7145 9.80809 17.7145 9.95106 17.8575L10.8397 18.7461L12.1036 17.4822C12.2467 17.3391 12.4785 17.3391 12.6215 17.4822C12.7645 17.6252 12.7645 17.8571 12.6215 18L11.0986 19.523C11.0271 19.5945 10.9334 19.6302 10.8397 19.6302Z" fill="white"/>
<path d="M16.4618 3.13691L17.195 2.40366C17.2979 2.30073 17.3095 2.13652 17.2198 2.02192C16.964 1.69507 16.6691 1.4002 16.3422 1.14434C16.2276 1.05464 16.0634 1.06621 15.9605 1.16914L15.2272 1.90239C15.1369 1.99272 14.9988 2.01177 14.8856 1.95239C14.6934 1.85142 14.4909 1.76729 14.2802 1.70176C14.1583 1.66387 14.0742 1.55264 14.0742 1.425V0.3875C14.0742 0.241992 13.9664 0.117676 13.822 0.100098C13.6185 0.0753418 13.4114 0.0625 13.2013 0.0625C12.9912 0.0625 12.784 0.0753418 12.5806 0.100098C12.4361 0.117676 12.3283 0.241992 12.3283 0.3875V1.42495C12.3283 1.55264 12.2442 1.66382 12.1223 1.70171C11.9116 1.76724 11.7091 1.85137 11.5168 1.95234C11.4037 2.01177 11.2656 1.99272 11.1752 1.90234L10.442 1.16909C10.3391 1.06616 10.1749 1.05459 10.0603 1.14429C9.7334 1.40015 9.43852 1.69497 9.18267 2.02187C9.09297 2.13647 9.10454 2.30068 9.20747 2.40361L9.94072 3.13687C10.0311 3.2272 10.0501 3.36533 9.99072 3.47847C9.88975 3.67075 9.80561 3.87319 9.74009 4.08389C9.7022 4.20581 9.59097 4.28994 9.46333 4.28994H8.42583C8.28032 4.28994 8.15601 4.39771 8.13843 4.54214C8.11367 4.74561 8.10083 4.95273 8.10083 5.16284C8.10083 5.373 8.11367 5.58013 8.13843 5.78355C8.15601 5.92798 8.28032 6.03574 8.42583 6.03574H9.46328C9.59097 6.03574 9.70215 6.11987 9.74004 6.2418C9.80557 6.45249 9.8897 6.65498 9.99067 6.84722C10.0501 6.96035 10.0311 7.09849 9.94067 7.18882L9.20742 7.92207C9.10449 8.025 9.09292 8.18921 9.18262 8.30381C9.43848 8.63066 9.7333 8.92554 10.0602 9.1814C10.1748 9.27109 10.339 9.25952 10.4419 9.15659L11.1752 8.42334C11.2655 8.33301 11.4037 8.31396 11.5168 8.37334C11.7091 8.47432 11.9115 8.55845 12.1222 8.62397C12.2441 8.66186 12.3283 8.7731 12.3283 8.90073V9.93818C12.3283 10.0837 12.436 10.208 12.5805 10.2256C12.784 10.2503 12.9911 10.2632 13.2012 10.2632C13.4113 10.2632 13.6185 10.2503 13.8219 10.2256C13.9664 10.208 14.0741 10.0837 14.0741 9.93818V8.90073C14.0741 8.77305 14.1583 8.66186 14.2802 8.62397C14.4909 8.55845 14.6934 8.47432 14.8856 8.37334C14.9987 8.31392 15.1369 8.33296 15.2272 8.42334L15.9604 9.15659C16.0634 9.25952 16.2276 9.27109 16.3422 9.1814C16.669 8.92554 16.9639 8.63071 17.2198 8.30381C17.3095 8.18921 17.2979 8.025 17.195 7.92207L16.4617 7.18882C16.3714 7.09849 16.3523 6.96035 16.4117 6.84722C16.5127 6.65493 16.5968 6.45249 16.6624 6.2418C16.7002 6.11987 16.8115 6.03574 16.9391 6.03574H17.9766C18.1221 6.03574 18.2464 5.92798 18.264 5.78355C18.2887 5.58008 18.3016 5.37295 18.3016 5.16284C18.3016 4.95269 18.2887 4.74556 18.264 4.54214C18.2464 4.39771 18.1221 4.28994 17.9766 4.28994H16.9391C16.8114 4.28994 16.7002 4.20581 16.6624 4.08389C16.5968 3.87319 16.5127 3.6707 16.4117 3.47847C16.3524 3.36538 16.3714 3.22725 16.4618 3.13691Z" fill="#7CA1B1"/>
<path d="M12.3745 7.6834C11.3153 7.33506 10.5481 6.33716 10.5481 5.16289C10.5481 3.98862 11.3153 2.99072 12.3745 2.64238C12.8243 2.11689 13.412 1.71294 14.0817 1.48662C14.0772 1.4666 14.0742 1.44614 14.0742 1.42495V0.3875C14.0742 0.241992 13.9664 0.117676 13.822 0.100098C13.6185 0.0753418 13.4114 0.0625 13.2013 0.0625C12.9912 0.0625 12.784 0.0753418 12.5806 0.100098C12.4361 0.117676 12.3283 0.241992 12.3283 0.3875V1.42495C12.3283 1.55264 12.2442 1.66382 12.1223 1.70171C11.9116 1.76724 11.7091 1.85137 11.5168 1.95234C11.4037 2.01177 11.2656 1.99272 11.1752 1.90234L10.442 1.16909C10.3391 1.06616 10.1749 1.05459 10.0603 1.14429C9.7334 1.40015 9.43852 1.69497 9.18267 2.02187C9.09297 2.13647 9.10454 2.30068 9.20747 2.40361L9.94072 3.13687C10.0311 3.2272 10.0501 3.36533 9.99072 3.47847C9.88975 3.67075 9.80561 3.87319 9.74009 4.08389C9.7022 4.20581 9.59097 4.28994 9.46333 4.28994H8.42583C8.28032 4.28994 8.15601 4.39771 8.13843 4.54214C8.11367 4.74561 8.10083 4.95273 8.10083 5.16284C8.10083 5.37295 8.11367 5.58013 8.13843 5.78355C8.15601 5.92798 8.28032 6.03574 8.42583 6.03574H9.46328C9.59097 6.03574 9.70215 6.11987 9.74004 6.2418C9.80557 6.45249 9.8897 6.65498 9.99067 6.84722C10.0501 6.96035 10.0311 7.09849 9.94067 7.18882L9.20742 7.92207C9.10449 8.025 9.09292 8.18921 9.18262 8.30381C9.43848 8.63066 9.7333 8.92554 10.0602 9.1814C10.1748 9.27109 10.339 9.25952 10.4419 9.15659L11.1752 8.42334C11.2655 8.33301 11.4037 8.31396 11.5168 8.37334C11.7091 8.47432 11.9115 8.55845 12.1222 8.62397C12.2441 8.66186 12.3283 8.7731 12.3283 8.90073V9.93818C12.3283 10.0837 12.436 10.208 12.5805 10.2256C12.784 10.2503 12.9911 10.2632 13.2012 10.2632C13.4113 10.2632 13.6185 10.2503 13.8219 10.2256C13.9664 10.208 14.0741 10.0837 14.0741 9.93818V8.90073C14.0741 8.87954 14.0772 8.85908 14.0816 8.83906C13.4121 8.61284 12.8243 8.20889 12.3745 7.6834Z" fill="#678D98"/>
<path d="M13.2012 7.44873C14.4642 7.44873 15.488 6.42487 15.488 5.16187C15.488 3.89886 14.4642 2.875 13.2012 2.875C11.9382 2.875 10.9143 3.89886 10.9143 5.16187C10.9143 6.42487 11.9382 7.44873 13.2012 7.44873Z" fill="#3E5959"/>
<path d="M12.1982 5.16187C12.1982 4.12183 12.8927 3.24453 13.8431 2.96699C13.6394 2.90752 13.4241 2.875 13.2012 2.875C11.9381 2.875 10.9143 3.89888 10.9143 5.16187C10.9143 6.42485 11.9382 7.44873 13.2012 7.44873C13.4241 7.44873 13.6394 7.41621 13.8431 7.35674C12.8927 7.07925 12.1982 6.2019 12.1982 5.16187Z" fill="#384949"/>
<path d="M13.2012 7.81787C11.7383 7.81787 10.5481 6.62769 10.5481 5.1648C10.5481 3.7019 11.7383 2.51172 13.2012 2.51172C14.6641 2.51172 15.8542 3.7019 15.8542 5.1648C15.8542 6.62769 14.6641 7.81787 13.2012 7.81787ZM13.2012 3.24414C12.1421 3.24414 11.2805 4.10576 11.2805 5.1648C11.2805 6.22383 12.1421 7.08545 13.2012 7.08545C14.2602 7.08545 15.1218 6.22383 15.1218 5.1648C15.1218 4.10576 14.2603 3.24414 13.2012 3.24414Z" fill="#8EBAC5"/>
<path d="M13.201 5.95518C13.6395 5.95518 13.995 5.59969 13.995 5.16118C13.995 4.72267 13.6395 4.36719 13.201 4.36719C12.7625 4.36719 12.407 4.72267 12.407 5.16118C12.407 5.59969 12.7625 5.95518 13.201 5.95518Z" fill="white"/>
<path d="M24.7484 15.4068H16.1387C15.9998 15.4068 15.8872 15.2942 15.8872 15.1553V12.4039C15.8872 12.2649 15.9998 12.1523 16.1387 12.1523H24.7484C24.8873 12.1523 24.9999 12.2649 24.9999 12.4039V15.1554C24.9999 15.2942 24.8873 15.4068 24.7484 15.4068Z" fill="#01D0FB"/>
<path d="M17.5804 15.1554V12.4039C17.5804 12.2649 17.693 12.1523 17.8319 12.1523H16.1387C15.9998 12.1523 15.8872 12.2649 15.8872 12.4039V15.1554C15.8872 15.2943 15.9998 15.4069 16.1387 15.4069H17.8319C17.693 15.4069 17.5804 15.2942 17.5804 15.1554Z" fill="#01C0FA"/>
<path d="M23.21 14.1426H17.6772C17.475 14.1426 17.311 13.9786 17.311 13.7764C17.311 13.5741 17.475 13.4102 17.6772 13.4102H23.21C23.4123 13.4102 23.5762 13.5741 23.5762 13.7764C23.5762 13.9786 23.4122 14.1426 23.21 14.1426Z" fill="#625FB2"/>
<path d="M24.7484 20.1725H16.1387C15.9998 20.1725 15.8872 20.0599 15.8872 19.921V17.1695C15.8872 17.0306 15.9998 16.918 16.1387 16.918H24.7484C24.8873 16.918 24.9999 17.0306 24.9999 17.1695V19.921C24.9999 20.0599 24.8873 20.1725 24.7484 20.1725Z" fill="#FED402"/>
<path d="M17.5804 19.921V17.1695C17.5804 17.0306 17.693 16.918 17.8319 16.918H16.1387C15.9998 16.918 15.8872 17.0306 15.8872 17.1695V19.921C15.8872 20.0599 15.9998 20.1725 16.1387 20.1725H17.8319C17.693 20.1725 17.5804 20.0599 17.5804 19.921Z" fill="#FAC600"/>
<path d="M23.21 18.9082H17.6772C17.475 18.9082 17.311 18.7442 17.311 18.542C17.311 18.3397 17.475 18.1758 17.6772 18.1758H23.21C23.4123 18.1758 23.5762 18.3397 23.5762 18.542C23.5762 18.7442 23.4122 18.9082 23.21 18.9082Z" fill="#C99C56"/>
<path d="M24.7484 24.9381H16.1387C15.9998 24.9381 15.8872 24.8255 15.8872 24.6866V21.9351C15.8872 21.7962 15.9998 21.6836 16.1387 21.6836H24.7484C24.8873 21.6836 24.9999 21.7962 24.9999 21.9351V24.6866C24.9999 24.8255 24.8873 24.9381 24.7484 24.9381Z" fill="#FD5426"/>
<path d="M17.5804 24.6866V21.9351C17.5804 21.7962 17.693 21.6836 17.8319 21.6836H16.1387C15.9998 21.6836 15.8872 21.7962 15.8872 21.9351V24.6866C15.8872 24.8255 15.9998 24.9381 16.1387 24.9381H17.8319C17.693 24.9381 17.5804 24.8255 17.5804 24.6866Z" fill="#EF4424"/>
<path d="M23.21 23.6738H17.6772C17.475 23.6738 17.311 23.5099 17.311 23.3076C17.311 23.1054 17.475 22.9414 17.6772 22.9414H23.21C23.4123 22.9414 23.5762 23.1054 23.5762 23.3076C23.5762 23.5099 23.4122 23.6738 23.21 23.6738Z" fill="#D73D24"/>
</g>
<defs>
<clipPath id="clip0_13_2892">
<rect width="25" height="25" fill="white"/>
</clipPath>
</defs>
</svg>
