<svg width="25" height="25" viewBox="0 0 25 25" fill="none" xmlns="http://www.w3.org/2000/svg">
<g clip-path="url(#clip0_13_2777)">
<path d="M18.9657 12.9341C18.7278 12.9341 18.5347 12.741 18.5347 12.5031C18.5347 11.5522 19.3079 10.779 20.2588 10.779H22.845C23.0825 10.779 23.276 10.5854 23.276 10.3479V8.19275C23.276 7.95482 23.4692 7.76172 23.7071 7.76172C23.945 7.76172 24.1381 7.95482 24.1381 8.19275V10.3479C24.1381 11.0609 23.5579 11.641 22.845 11.641H20.2588C19.7834 11.641 19.3967 12.0277 19.3967 12.5031C19.3967 12.741 19.2036 12.9341 18.9657 12.9341Z" fill="#7E7BC6"/>
<path d="M6.89679 8.18925H4.74162C2.60239 8.18925 0.862305 6.44873 0.862305 4.30994C0.862305 4.07201 1.05541 3.87891 1.29334 3.87891C1.53127 3.87891 1.72437 4.07201 1.72437 4.30994C1.72437 5.97373 3.07782 7.32718 4.74162 7.32718H6.89679C7.13472 7.32718 7.32782 7.52029 7.32782 7.75822C7.32782 7.99615 7.13472 8.18925 6.89679 8.18925Z" fill="#7E7BC6"/>
<path d="M9.91398 22.8467H6.4657C6.22777 22.8467 6.03467 22.6536 6.03467 22.4157C6.03467 22.1777 6.22777 21.9846 6.4657 21.9846H9.91398C11.1023 21.9846 12.0692 21.0178 12.0692 19.8295C12.0692 19.5915 12.2623 19.3984 12.5002 19.3984C12.7381 19.3984 12.9312 19.5915 12.9312 19.8295C12.9312 21.4933 11.5778 22.8467 9.91398 22.8467Z" fill="#7E7BC6"/>
<path d="M6.89665 17.6746H2.58631C2.34838 17.6746 2.15527 17.4815 2.15527 17.2435C2.15527 17.0056 2.34838 16.8125 2.58631 16.8125H6.89665C7.13458 16.8125 7.32769 17.0056 7.32769 17.2435C7.32769 17.4815 7.13458 17.6746 6.89665 17.6746Z" fill="#7E7BC6"/>
<path d="M12.5002 3.01845C12.2622 3.01845 12.0691 2.82535 12.0691 2.58742C12.0691 2.11199 11.6825 1.72535 11.2071 1.72535H9.05188C8.81395 1.72535 8.62085 1.53225 8.62085 1.29432C8.62085 1.05638 8.81395 0.863281 9.05188 0.863281H11.2071C12.1579 0.863281 12.9312 1.63656 12.9312 2.58742C12.9312 2.82535 12.7381 3.01845 12.5002 3.01845Z" fill="#7E7BC6"/>
<path d="M12.5001 5.60465C12.2622 5.60465 12.0691 5.41154 12.0691 5.17361V2.58741C12.0691 2.34948 12.2622 2.15637 12.5001 2.15637C12.7381 2.15637 12.9312 2.34948 12.9312 2.58741V5.17361C12.9312 5.41154 12.7381 5.60465 12.5001 5.60465Z" fill="#7E7BC6"/>
<path d="M15.9486 6.46672C15.7107 6.46672 15.5176 6.27361 15.5176 6.03568C15.5176 5.08482 16.2909 4.31154 17.2417 4.31154H18.5348C18.7723 4.31154 18.9659 4.11801 18.9659 3.88051V2.58741C18.9659 2.34948 19.159 2.15637 19.3969 2.15637C19.6348 2.15637 19.8279 2.34948 19.8279 2.58741V3.88051C19.8279 4.59344 19.2478 5.17361 18.5348 5.17361H17.2417C16.7663 5.17361 16.3796 5.56025 16.3796 6.03568C16.3796 6.27361 16.1865 6.46672 15.9486 6.46672Z" fill="#7E7BC6"/>
<path d="M23.7072 18.1033C23.4693 18.1033 23.2762 17.9102 23.2762 17.6723V16.3792C23.2762 16.1417 23.0826 15.9481 22.8451 15.9481H18.7395C17.8434 15.9481 17.2417 15.2555 17.2417 14.224C17.2417 13.9861 17.4348 13.793 17.6727 13.793C17.9107 13.793 18.1038 13.9861 18.1038 14.224C18.1038 14.4835 18.1658 15.0861 18.7395 15.0861H22.8451C23.5581 15.0861 24.1383 15.6662 24.1383 16.3792V17.6723C24.1383 17.9102 23.9451 18.1033 23.7072 18.1033Z" fill="#7E7BC6"/>
<path d="M18.1038 21.5524C17.8659 21.5524 17.6728 21.3593 17.6728 21.1214C17.6728 20.8839 17.4792 20.6903 17.2417 20.6903C16.2909 20.6903 15.5176 19.9171 15.5176 18.9662C15.5176 18.7283 15.7107 18.5352 15.9486 18.5352C16.1865 18.5352 16.3796 18.7283 16.3796 18.9662C16.3796 19.4416 16.7663 19.8283 17.2417 19.8283C17.9546 19.8283 18.5348 20.4084 18.5348 21.1214C18.5348 21.3593 18.3417 21.5524 18.1038 21.5524Z" fill="#7E7BC6"/>
<path d="M1.2931 4.30886C2.00726 4.30886 2.58621 3.72992 2.58621 3.01576C2.58621 2.3016 2.00726 1.72266 1.2931 1.72266C0.578942 1.72266 0 2.3016 0 3.01576C0 3.72992 0.578942 4.30886 1.2931 4.30886Z" fill="#625FB2"/>
<path d="M7.75868 2.58621C8.47284 2.58621 9.05178 2.00726 9.05178 1.2931C9.05178 0.578942 8.47284 0 7.75868 0C7.04452 0 6.46558 0.578942 6.46558 1.2931C6.46558 2.00726 7.04452 2.58621 7.75868 2.58621Z" fill="#625FB2"/>
<path d="M23.7067 8.18777C24.4208 8.18777 24.9998 7.60883 24.9998 6.89467C24.9998 6.1805 24.4208 5.60156 23.7067 5.60156C22.9925 5.60156 22.4136 6.1805 22.4136 6.89467C22.4136 7.60883 22.9925 8.18777 23.7067 8.18777Z" fill="#625FB2"/>
<path d="M23.7067 20.2581C24.4208 20.2581 24.9998 19.6791 24.9998 18.965C24.9998 18.2508 24.4208 17.6719 23.7067 17.6719C22.9925 17.6719 22.4136 18.2508 22.4136 18.965C22.4136 19.6791 22.9925 20.2581 23.7067 20.2581Z" fill="#625FB2"/>
<path d="M5.1725 23.7073C5.88666 23.7073 6.4656 23.1284 6.4656 22.4142C6.4656 21.7 5.88666 21.1211 5.1725 21.1211C4.45834 21.1211 3.87939 21.7 3.87939 22.4142C3.87939 23.1284 4.45834 23.7073 5.1725 23.7073Z" fill="#625FB2"/>
<path d="M1.2931 18.5354C2.00726 18.5354 2.58621 17.9565 2.58621 17.2423C2.58621 16.5282 2.00726 15.9492 1.2931 15.9492C0.578942 15.9492 0 16.5282 0 17.2423C0 17.9565 0.578942 18.5354 1.2931 18.5354Z" fill="#625FB2"/>
<path d="M19.3966 2.58621C20.1108 2.58621 20.6897 2.00726 20.6897 1.2931C20.6897 0.578942 20.1108 0 19.3966 0C18.6825 0 18.1035 0.578942 18.1035 1.2931C18.1035 2.00726 18.6825 2.58621 19.3966 2.58621Z" fill="#625FB2"/>
<path d="M12.4999 19.827C16.5469 19.827 19.8275 16.5464 19.8275 12.4995C19.8275 8.45255 16.5469 5.17188 12.4999 5.17188C8.45304 5.17188 5.17236 8.45255 5.17236 12.4995C5.17236 16.5464 8.45304 19.827 12.4999 19.827Z" fill="#625FB2"/>
<path d="M18.1034 22.8466C17.8655 22.8466 17.6724 22.6535 17.6724 22.4155V21.1224C17.6724 20.8845 17.8655 20.6914 18.1034 20.6914C18.3413 20.6914 18.5344 20.8845 18.5344 21.1224V22.4155C18.5344 22.6535 18.3413 22.8466 18.1034 22.8466Z" fill="#7E7BC6"/>
<path d="M9.05176 11.6367H15.9483V16.8091H9.05176V11.6367Z" fill="#2FF761"/>
<path d="M11.207 13.3633H13.7932V15.0874H11.207V13.3633Z" fill="white"/>
<path d="M12.4998 7.32812C11.0713 7.32812 9.91357 8.48588 9.91357 9.91433V11.6385H11.6377V9.91433C11.6377 9.43804 12.0239 9.05226 12.4998 9.05226C12.9756 9.05226 13.3619 9.43804 13.3619 9.91433V11.6385H15.086V9.91433C15.086 8.48588 13.9282 7.32812 12.4998 7.32812Z" fill="white"/>
<path d="M18.1037 25.0003C18.8178 25.0003 19.3968 24.4213 19.3968 23.7072C19.3968 22.993 18.8178 22.4141 18.1037 22.4141C17.3895 22.4141 16.8105 22.993 16.8105 23.7072C16.8105 24.4213 17.3895 25.0003 18.1037 25.0003Z" fill="#625FB2"/>
</g>
<defs>
<clipPath id="clip0_13_2777">
<rect width="25" height="25" fill="white"/>
</clipPath>
</defs>
</svg>
