<svg width="25" height="25" viewBox="0 0 25 25" fill="none" xmlns="http://www.w3.org/2000/svg">
<g clip-path="url(#clip0_13_2858)">
<path fill-rule="evenodd" clip-rule="evenodd" d="M4.24858 19.7168H1.37891C1.19014 19.7168 1.03711 19.5638 1.03711 19.375V14.6719H1.7207V19.0332H4.24858V19.7168Z" fill="#FF8748"/>
<path fill-rule="evenodd" clip-rule="evenodd" d="M1.95177 14.0966C2.26813 14.413 2.26813 14.9259 1.95177 15.2423C1.63541 15.5587 1.12247 15.5587 0.806116 15.2423C0.489758 14.9259 0.489758 14.413 0.806116 14.0966C1.12247 13.7803 1.63541 13.7803 1.95177 14.0966Z" fill="#4EB1FC"/>
<path fill-rule="evenodd" clip-rule="evenodd" d="M14.4297 19.0312H17.2994C17.4881 19.0312 17.6412 19.1843 17.6412 19.373V22.6445H16.9576V19.7148H14.4297V19.0312Z" fill="#FF8748"/>
<path fill-rule="evenodd" clip-rule="evenodd" d="M17.8722 22.0732C18.1885 22.3896 18.1885 22.9025 17.8722 23.2189C17.5558 23.5352 17.0429 23.5352 16.7265 23.2189C16.4102 22.9025 16.4102 22.3896 16.7265 22.0732C17.0429 21.7568 17.5558 21.7568 17.8722 22.0732Z" fill="#4EB1FC"/>
<path fill-rule="evenodd" clip-rule="evenodd" d="M17.0833 23.4249C16.9526 23.3889 16.8292 23.3196 16.7265 23.2169C16.4102 22.9006 16.4102 22.3876 16.7265 22.0713C16.8292 21.9686 16.9526 21.8993 17.0833 21.8633C17.214 21.8993 17.3374 21.9686 17.4401 22.0713C17.7565 22.3876 17.7565 22.9006 17.4401 23.2169C17.3374 23.3196 17.214 23.389 17.0833 23.4249Z" fill="#85CAFF"/>
<path fill-rule="evenodd" clip-rule="evenodd" d="M8.64844 2.64844H10.1096V3.33203H8.64844V2.64844ZM13.6947 6.33325L11.9355 4.57412H8.64844V3.89053H12.0771C12.168 3.89053 12.2544 3.92637 12.3187 3.99067L14.178 5.84995L13.6947 6.33325ZM8.64844 7.6168H10.1096V8.30039H8.64844V7.6168ZM8.64844 6.37471H10.1096V7.0583H8.64844V6.37471ZM8.64844 5.13262V5.81621H10.1096V5.13262H8.64844Z" fill="#FF8748"/>
<path fill-rule="evenodd" clip-rule="evenodd" d="M5.66479 2.00024V0.539062H6.34839V2.00024H5.66479ZM6.99951 2.00024V0.539062H7.68311V2.00024H6.99951ZM4.33008 2.00024V0.539062H5.01367V2.00024H4.33008ZM2.99536 2.00024V0.539062H3.67896V2.00024H2.99536Z" fill="#FF8748"/>
<path fill-rule="evenodd" clip-rule="evenodd" d="M0.568848 2.64844H2.03003V3.33203H0.568848V2.64844ZM0.568848 7.6168H2.03003V8.30039H0.568848V7.6168ZM0.568848 6.37471H2.03003V7.0583H0.568848V6.37471ZM0.568848 5.13262H2.03003V5.81621H0.568848V5.13262ZM0.568848 3.89053H2.03003V4.57412H0.568848V3.89053Z" fill="#FF8748"/>
<path fill-rule="evenodd" clip-rule="evenodd" d="M8.99746 14.2837V13.0195L5.83706 11.1948C5.72764 11.132 5.66494 11.0176 5.66484 10.8998V8.94939H6.34844V10.7042L9.48135 12.513C9.59922 12.5669 9.6811 12.6858 9.6811 12.8239V14.2838H8.99751L8.99746 14.2837ZM5.498 16.0163L5.9813 15.533L3.67896 13.2307V8.94934H2.99536V13.3722C2.99536 13.4596 3.02876 13.5471 3.09551 13.6138L5.498 16.0163ZM6.99951 10.4105H7.68311V8.94934H6.99951V10.4105ZM4.33008 10.4105V8.94934H5.01367V10.4105H4.33008Z" fill="#FF8748"/>
<path fill-rule="evenodd" clip-rule="evenodd" d="M20.9887 5.97319L21.7058 5.49233C21.8226 5.41401 21.9747 5.42886 22.0741 5.52827L23.184 6.63809C23.2834 6.7375 23.2983 6.8897 23.22 7.00649L22.7391 7.72358L23.349 9.19585L24.196 9.36284C24.334 9.39004 24.4311 9.50811 24.4311 9.64878V11.2183C24.4311 11.3589 24.334 11.4771 24.196 11.5042L23.3491 11.6712L22.7391 13.1435L23.22 13.8606C23.2983 13.9774 23.2835 14.1296 23.184 14.229L22.0742 15.3388C21.9748 15.4382 21.8226 15.4531 21.7058 15.3748L20.9887 14.8939L19.5165 15.5039L19.3495 16.3509C19.3223 16.4889 19.2042 16.5859 19.0635 16.5859H17.494C17.3534 16.5859 17.2353 16.4889 17.2081 16.3509L17.0411 15.5039L15.5688 14.8939L14.8517 15.3749C14.7349 15.4532 14.5828 15.4383 14.4834 15.3389L13.3735 14.2291C13.2741 14.1296 13.2592 13.9774 13.3375 13.8606L13.8185 13.1436L13.2085 11.6713L12.3615 11.5043C12.2235 11.4771 12.1265 11.359 12.1265 11.2184V9.64883C12.1265 9.50815 12.2235 9.39009 12.3615 9.36289L13.2085 9.1959L13.8185 7.72363L13.3375 7.00654C13.2592 6.8898 13.2741 6.7376 13.3735 6.63813L14.4834 5.52832C14.5828 5.42891 14.735 5.41406 14.8518 5.49238L15.5688 5.97324L17.0411 5.36328L17.2081 4.51631C17.2353 4.37832 17.3534 4.28125 17.494 4.28125H19.0636C19.2042 4.28125 19.3223 4.37832 19.3495 4.51631L19.5165 5.36328L20.9888 5.97324L20.9887 5.97319Z" fill="#909CD1"/>
<path fill-rule="evenodd" clip-rule="evenodd" d="M20.9888 5.97334L21.5091 5.62437L22.6925 6.80762L22.0781 7.72373L22.6881 9.196L23.7701 9.40933V11.4581L22.6881 11.6714L22.0781 13.1437L22.6925 14.0597L21.5092 15.243L20.4531 14.5348L18.9214 15.1694L18.6421 16.5859H17.494C17.3534 16.5859 17.2354 16.4889 17.2081 16.3509L17.0411 15.5039L15.0209 14.6669L14.2969 15.1524L13.3735 14.2291C13.2741 14.1296 13.2592 13.9775 13.3375 13.8606L13.8185 13.1436L13.2085 11.6713L12.3615 11.5043C12.2236 11.4771 12.1265 11.359 12.1265 11.2184V9.64883C12.1265 9.5082 12.2235 9.39009 12.3615 9.36289L13.2085 9.1959L13.8185 7.72363L13.3375 7.00654C13.2592 6.88975 13.2741 6.73755 13.3735 6.63813L14.2969 5.71475L15.0209 6.20024L15.5688 5.97324L17.0411 5.36328L17.2081 4.51636C17.2353 4.37837 17.3534 4.28125 17.494 4.28125H18.6421L18.9214 5.69785L20.4531 6.33242L20.9888 5.97324V5.97334Z" fill="#BDC7F2"/>
<path d="M20.4507 13.0397C21.8902 11.6003 21.8902 9.26644 20.4507 7.82698C19.0112 6.38752 16.6774 6.38752 15.238 7.82698C13.7985 9.26644 13.7985 11.6003 15.238 13.0397C16.6774 14.4792 19.0112 14.4792 20.4507 13.0397Z" fill="#909CD1"/>
<path d="M20.8821 13.0398C22.3216 11.6004 22.3216 9.26656 20.8821 7.8271C19.4426 6.38764 17.1088 6.38764 15.6694 7.8271C14.2299 9.26656 14.2299 11.6004 15.6694 13.0398C17.1088 14.4793 19.4426 14.4793 20.8821 13.0398Z" fill="white"/>
<path fill-rule="evenodd" clip-rule="evenodd" d="M17.9214 7.86328H19.427L18.525 9.42559H20.2181L16.9764 13.0043L17.8329 10.5938H16.3394L17.9214 7.86328Z" fill="#FDC72E"/>
<path fill-rule="evenodd" clip-rule="evenodd" d="M17.9214 7.86328H18.9143L18.0123 9.42559H18.525H19.7054L17.3073 12.073L17.8329 10.5938H17.3202H16.3394L17.9214 7.86328Z" fill="#FCDB35"/>
<path fill-rule="evenodd" clip-rule="evenodd" d="M11.5814 15.6812L12.1748 15.2833C12.2714 15.2185 12.3973 15.2308 12.4796 15.313L13.3979 16.2313C13.4802 16.3136 13.4925 16.4396 13.4276 16.5362L13.0297 17.1295L13.5344 18.3478L14.2352 18.4859C14.3494 18.5084 14.4297 18.6062 14.4297 18.7225V20.0212C14.4297 20.1375 14.3494 20.2353 14.2353 20.2578L13.5344 20.3959L13.0297 21.6142L13.4276 22.2075C13.4924 22.3042 13.4802 22.4301 13.3979 22.5124L12.4796 23.4306C12.3973 23.5129 12.2714 23.5252 12.1748 23.4604L11.5814 23.0625L10.3632 23.5672L10.225 24.268C10.2025 24.3822 10.1048 24.4625 9.98848 24.4625H8.68979C8.57344 24.4625 8.47568 24.3822 8.45317 24.268L8.31499 23.5672L7.09683 23.0625L6.50347 23.4604C6.40684 23.5252 6.28096 23.5129 6.19863 23.4306L5.28037 22.5124C5.1981 22.4301 5.18579 22.3042 5.25059 22.2075L5.64849 21.6142L5.1438 20.3959L4.44302 20.2578C4.32886 20.2353 4.24854 20.1375 4.24854 20.0212V18.7225C4.24854 18.6062 4.32891 18.5084 4.44307 18.4859L5.14385 18.3478L5.64853 17.1295L5.25063 16.5362C5.18584 16.4396 5.1981 16.3136 5.28042 16.2313L6.19873 15.313C6.28101 15.2308 6.40688 15.2185 6.50352 15.2833L7.09687 15.6812L8.31509 15.1765L8.45327 14.4757C8.47578 14.3616 8.57349 14.2812 8.68984 14.2812H9.98852C10.1049 14.2812 10.2026 14.3616 10.2251 14.4757L10.3633 15.1765L11.5814 15.6812Z" fill="#1176E8"/>
<path fill-rule="evenodd" clip-rule="evenodd" d="M11.5814 15.6811L12.012 15.3924L12.9911 16.3714L12.4828 17.1294L12.9875 18.3476L13.8828 18.5241V20.2193L12.9875 20.3958L12.4828 21.614L12.9911 22.372L12.012 23.3511L11.1382 22.7651L9.8709 23.2902L9.63979 24.4623H8.68979C8.57344 24.4623 8.47573 24.382 8.45322 24.2678L8.31509 23.567L6.64351 22.8745L6.04448 23.2762L5.28042 22.5122C5.19814 22.4299 5.18584 22.3041 5.25063 22.2074L5.64854 21.614L5.14385 20.3958L4.44302 20.2577C4.32886 20.2352 4.24854 20.1375 4.24854 20.0211V18.7224C4.24854 18.6061 4.32886 18.5083 4.44302 18.4858L5.14385 18.3477L5.64854 17.1295L5.25063 16.5362C5.18584 16.4396 5.19814 16.3136 5.28042 16.2313L6.04448 15.4673L6.64351 15.869L7.09687 15.6812L8.31509 15.1765L8.45322 14.4757C8.47573 14.3616 8.57344 14.2812 8.68979 14.2812H9.63979L9.8709 15.4534L11.1382 15.9784L11.5814 15.6812V15.6811Z" fill="#4EB1FC"/>
<path d="M8.98218 21.9819C10.4226 21.9819 11.5903 20.8142 11.5903 19.3738C11.5903 17.9333 10.4226 16.7656 8.98218 16.7656C7.54173 16.7656 6.37402 17.9333 6.37402 19.3738C6.37402 20.8142 7.54173 21.9819 8.98218 21.9819Z" fill="#1176E8"/>
<path d="M11.906 19.7825C12.135 18.3608 11.1681 17.0226 9.74641 16.7935C8.3247 16.5645 6.9865 17.5314 6.75747 18.9531C6.52844 20.3748 7.4953 21.713 8.91702 21.942C10.3387 22.1711 11.6769 21.2042 11.906 19.7825Z" fill="white"/>
<path fill-rule="evenodd" clip-rule="evenodd" d="M9.39946 19.7958L7.75234 21.4429C7.5709 21.3036 7.40835 21.141 7.26904 20.9596L8.91616 19.3125L9.39946 19.7958Z" fill="#909CD1"/>
<path fill-rule="evenodd" clip-rule="evenodd" d="M9.97484 18.7359C10.3259 19.087 10.3259 19.656 9.97484 20.0071C9.62382 20.3581 9.05472 20.3581 8.7037 20.0071C8.35267 19.656 8.35267 19.087 8.7037 18.7359C9.05472 18.3849 9.62382 18.3849 9.97484 18.7359Z" fill="#F2671F"/>
<path fill-rule="evenodd" clip-rule="evenodd" d="M9.11508 20.241C8.96434 20.2023 8.82172 20.1241 8.7037 20.0061C8.35267 19.655 8.35267 19.0859 8.7037 18.7349C8.82172 18.6169 8.96434 18.5387 9.11508 18.5C9.26581 18.5387 9.40848 18.6169 9.52645 18.7349C9.87748 19.0859 9.87748 19.655 9.52645 20.0061C9.40844 20.1241 9.26581 20.2023 9.11508 20.241Z" fill="#FF8748"/>
<path fill-rule="evenodd" clip-rule="evenodd" d="M1.1629 15.4484C1.03224 15.4124 0.908801 15.3431 0.806116 15.2404C0.489758 14.924 0.489758 14.4111 0.806116 14.0947C0.908801 13.992 1.03219 13.9227 1.1629 13.8867C1.29357 13.9228 1.417 13.992 1.51969 14.0947C1.83605 14.4111 1.83605 14.924 1.51969 15.2404C1.417 15.3431 1.29357 15.4124 1.1629 15.4484Z" fill="#85CAFF"/>
<path d="M8.02168 1.92969H2.65693C2.27524 1.92969 1.96582 2.23911 1.96582 2.6208V8.3227C1.96582 8.7044 2.27524 9.01382 2.65693 9.01382H8.02168C8.40337 9.01382 8.71279 8.7044 8.71279 8.3227V2.6208C8.71279 2.23911 8.40337 1.92969 8.02168 1.92969Z" fill="#FDC72E"/>
<path d="M7.49434 1.92969H2.65693C2.27524 1.92969 1.96582 2.23911 1.96582 2.6208V8.3227C1.96582 8.7044 2.27524 9.01382 2.65693 9.01382H7.49434C7.87603 9.01382 8.18545 8.7044 8.18545 8.3227V2.6208C8.18545 2.23911 7.87603 1.92969 7.49434 1.92969Z" fill="#FCDB35"/>
<path d="M3.61182 3.58203H7.06631V7.36729H3.61182V3.58203Z" fill="white"/>
<path d="M3.21875 3.58203H3.61216V7.36729H3.21875V3.58203Z" fill="#FDC72E"/>
</g>
<defs>
<clipPath id="clip0_13_2858">
<rect width="25" height="25" fill="white"/>
</clipPath>
</defs>
</svg>
