<svg width="25" height="25" viewBox="0 0 25 25" fill="none" xmlns="http://www.w3.org/2000/svg">
<g clip-path="url(#clip0_13_2806)">
<path d="M20.9015 8.52503C20.9015 10.6351 20.0501 13.5228 18.6549 15.9923C17.8149 17.4791 15.9834 20.1938 15.9834 21.8986H12.2949V0.601562C17.0482 0.601562 20.9015 4.03384 20.9015 8.52503Z" fill="#A6A3F3"/>
<path d="M3.68848 8.53674C3.68848 10.6468 4.53986 13.5345 5.9351 16.0041C6.77505 17.4908 8.60651 20.2055 8.60651 21.9104H12.295V0.613281C7.54176 0.613281 3.68848 4.04556 3.68848 8.53674Z" fill="#625FB2"/>
<path d="M16.6268 20.0437L15.8647 19.7419C15.9751 19.4672 16.103 19.1998 16.2476 18.9414L16.9652 19.3376C16.8374 19.5656 16.7244 19.8014 16.6268 20.0437Z" fill="#625FB2"/>
<path d="M17.3819 18.6456L16.6938 18.2005C16.8475 17.9627 17.0082 17.7274 17.1693 17.4961L17.8421 17.9644C17.6862 18.1885 17.5307 18.4158 17.3819 18.6456Z" fill="#625FB2"/>
<path d="M18.3209 17.2797L17.6477 16.8123C17.8092 16.5793 17.9633 16.3524 18.1015 16.1331L18.7951 16.5693C18.6509 16.799 18.49 17.0364 18.3209 17.2797Z" fill="#625FB2"/>
<path d="M19.2252 15.8186L18.5024 15.432C18.6305 15.1922 18.7533 14.9493 18.8708 14.7031L19.6105 15.0561C19.4878 15.3131 19.3594 15.5673 19.2252 15.8186Z" fill="#625FB2"/>
<path d="M19.9615 14.279L19.207 13.958C19.3143 13.7063 19.4157 13.4525 19.511 13.1992L20.2783 13.4874C20.1791 13.7519 20.0734 14.0158 19.9615 14.279Z" fill="#625FB2"/>
<path d="M21.2768 9.32875L20.46 9.2599C20.4812 9.01016 20.4918 8.76723 20.4918 8.53869L20.4914 8.46343L21.311 8.45703L21.3114 8.53869C21.3114 8.79043 21.2998 9.05621 21.2768 9.32875Z" fill="#625FB2"/>
<path d="M20.4407 7.67822C20.4096 7.41694 20.3641 7.15757 20.3042 6.90137L21.1023 6.71484C21.1691 7.00065 21.22 7.2899 21.2548 7.58134L20.4407 7.67822Z" fill="#625FB2"/>
<path d="M20.0822 6.14481C19.9937 5.89681 19.8916 5.65393 19.7764 5.4172L20.5132 5.05859C20.6419 5.32258 20.7557 5.59358 20.8542 5.87027L20.0822 6.14481Z" fill="#625FB2"/>
<path d="M19.3918 4.72847C19.2506 4.50572 19.0976 4.29066 18.9336 4.08411L19.5756 3.57422C19.7578 3.80383 19.9278 4.04297 20.0847 4.29061L19.3918 4.72847Z" fill="#625FB2"/>
<path d="M18.4088 3.48778C18.2234 3.29931 18.0284 3.12041 17.8247 2.95187L18.347 2.32031C18.5723 2.50674 18.788 2.70459 18.9931 2.91304L18.4088 3.48778Z" fill="#625FB2"/>
<path d="M17.1883 2.47638C16.9706 2.32992 16.7414 2.19139 16.5073 2.06496L16.8971 1.34375C17.1545 1.48304 17.4062 1.63514 17.6457 1.796L17.1883 2.47638Z" fill="#625FB2"/>
<path d="M15.7893 1.72108C15.549 1.61903 15.2978 1.52615 15.0425 1.44531L15.2906 0.664062C15.5702 0.752894 15.846 0.854585 16.1099 0.967034L15.7893 1.72108Z" fill="#625FB2"/>
<path d="M14.2716 1.23963C14.0143 1.1824 13.7497 1.13635 13.4854 1.10233L13.5902 0.289062C13.8788 0.326665 14.1677 0.377126 14.4489 0.439165L14.2716 1.23963Z" fill="#625FB2"/>
<path d="M15.6736 23.1433H8.91635C8.46364 23.1433 8.09668 22.7763 8.09668 22.3236V22.2949C8.10165 21.8682 8.4515 21.5264 8.87813 21.5313C8.89089 21.5315 8.90365 21.532 8.91635 21.5327H15.6736C16.0995 21.5066 16.4658 21.8308 16.4919 22.2566C16.4927 22.2694 16.4931 22.2821 16.4933 22.2949V22.3236C16.4933 22.7763 16.1263 23.1433 15.6736 23.1433Z" fill="#2D8AF9"/>
<path d="M8.81137 23.1406H15.7786C16.2313 23.1406 16.5983 23.5076 16.5983 23.9603V23.989C16.5983 24.4417 16.2313 24.8087 15.7786 24.8087H8.81137C8.35866 24.8087 7.9917 24.4417 7.9917 23.989V23.9603C7.9917 23.5076 8.35866 23.1406 8.81137 23.1406Z" fill="#086AF9"/>
<path d="M12.2951 6.74796V4.28894C12.0614 4.29037 11.828 4.30595 11.5962 4.33571L11.4164 5.1914C11.151 5.23976 10.8902 5.31005 10.6364 5.40159L10.0491 4.74591C9.6208 4.93049 9.2167 5.16671 8.84574 5.44934L9.11741 6.27649C8.91137 6.45129 8.72003 6.64268 8.54523 6.84872L7.71803 6.577C7.43534 6.94796 7.19913 7.35211 7.01455 7.78039L7.67013 8.36778C7.57858 8.62152 7.5083 8.88243 7.45993 9.1478L6.60425 9.32767V10.7255L7.45993 10.9053C7.50824 11.1707 7.57858 11.4316 7.67013 11.6853L7.01455 12.2726C7.19913 12.7009 7.43534 13.105 7.71798 13.476L8.54513 13.2043C8.71992 13.4104 8.91132 13.6017 9.11736 13.7765L8.84564 14.6037C9.21659 14.8864 9.62074 15.1226 10.0491 15.3072L10.6365 14.6516C10.8902 14.7432 11.1511 14.8135 11.4165 14.8619L11.5964 15.7176C11.8282 15.7473 12.0616 15.7629 12.2953 15.7643V13.3053C10.4845 13.3053 9.01659 11.8374 9.01659 10.0266C9.01659 8.21589 10.4844 6.74796 12.2951 6.74796Z" fill="white"/>
<path d="M19.2621 10.0272C18.7428 10.0288 18.2807 10.3571 18.1081 10.8469H15.9834V9.20754H18.0326C18.2589 9.20759 18.4424 9.02419 18.4425 8.79791V8.79771V7.08285C19.0827 6.85652 19.4182 6.15406 19.1919 5.51379C18.9656 4.87353 18.2631 4.53802 17.6228 4.76436C16.9826 4.99069 16.6471 5.69315 16.8734 6.33341C16.9972 6.68357 17.2726 6.95903 17.6228 7.08285V8.38792H15.9834V7.56825H15.1638V5.03367C15.804 4.80734 16.1395 4.10488 15.9132 3.46461C15.6869 2.82434 14.9844 2.48884 14.3442 2.71517C13.7039 2.94151 13.3684 3.64397 13.5947 4.28423C13.7185 4.63439 13.9939 4.90985 14.3441 5.03367V7.56825H12.2949V12.4863H13.5244V14.1256C13.5244 14.3519 13.7078 14.5354 13.9341 14.5355H13.9343H15.1638V15.0208C14.5236 15.2471 14.1881 15.9497 14.4144 16.5898C14.6408 17.23 15.3433 17.5655 15.9834 17.3392C16.6237 17.1128 16.9592 16.4103 16.7328 15.7701C16.609 15.42 16.3335 15.1446 15.9834 15.0208V14.1256C15.9835 13.8993 15.8001 13.7158 15.5738 13.7157H15.5736H14.3441V12.4862H15.9834V11.6666H18.1082C18.3358 12.3051 19.0378 12.6382 19.6763 12.4107C20.3148 12.1831 20.648 11.4811 20.4204 10.8425C20.2459 10.3529 19.7819 10.0263 19.2621 10.0272Z" fill="white"/>
<path d="M0.819824 22.3242H1.6395V23.1439H0.819824V22.3242Z" fill="#625FB2"/>
<path d="M0.819824 23.9609H1.6395V24.7806H0.819824V23.9609Z" fill="#625FB2"/>
<path d="M1.63916 23.1406H2.45883V23.9603H1.63916V23.1406Z" fill="#625FB2"/>
<path d="M0 23.1406H0.819672V23.9603H0V23.1406Z" fill="#625FB2"/>
<path d="M23.3606 0.191406H24.1803V1.01108H23.3606V0.191406Z" fill="#625FB2"/>
<path d="M23.3608 1.83203H24.1805V2.6517H23.3608V1.83203Z" fill="#625FB2"/>
<path d="M24.1802 1.01172H24.9998V1.83139H24.1802V1.01172Z" fill="#625FB2"/>
<path d="M22.541 1.01172H23.3607V1.83139H22.541V1.01172Z" fill="#625FB2"/>
</g>
<defs>
<clipPath id="clip0_13_2806">
<rect width="25" height="25" fill="white"/>
</clipPath>
</defs>
</svg>
