<svg width="25" height="25" viewBox="0 0 25 25" fill="none" xmlns="http://www.w3.org/2000/svg">
<g clip-path="url(#clip0_13_2995)">
<path fill-rule="evenodd" clip-rule="evenodd" d="M10.0048 5.79401C9.97233 5.34337 10.0105 4.91876 10.0105 4.91876C9.92731 4.84254 9.78141 4.70622 9.61935 4.58869C9.35704 4.39845 9.05226 4.25729 8.90202 4.49943C8.76696 4.71715 8.96823 5.21408 9.00573 5.4484C9.11613 6.13878 9.21183 6.75539 10.0047 5.79396L10.0048 5.79401Z" fill="#F9C795"/>
<path fill-rule="evenodd" clip-rule="evenodd" d="M9.64906 4.90101C9.61766 4.78168 9.49545 4.71039 9.37611 4.74178C9.25677 4.77318 9.18548 4.8954 9.21688 5.01473C9.24984 5.13866 9.27284 5.24305 9.29149 5.34808C9.31014 5.45301 9.32401 5.55716 9.33895 5.68138C9.35345 5.80409 9.46468 5.89183 9.58739 5.87733C9.71009 5.86283 9.79784 5.7516 9.78334 5.62884C9.76732 5.49564 9.75243 5.38392 9.73241 5.27103C9.71239 5.15829 9.68675 5.04271 9.64906 4.90091V4.90101Z" fill="#EDB47C"/>
<path fill-rule="evenodd" clip-rule="evenodd" d="M15.0111 5.79401C15.0436 5.34337 15.0054 4.91876 15.0054 4.91876C15.0886 4.84254 15.2345 4.70622 15.3965 4.58869C15.6588 4.39845 15.9636 4.25729 16.1138 4.49943C16.2489 4.71715 16.0476 5.21408 16.0101 5.4484C15.8997 6.13878 15.804 6.75543 15.0111 5.79401Z" fill="#F9C795"/>
<path fill-rule="evenodd" clip-rule="evenodd" d="M15.3668 4.90101C15.3982 4.78168 15.5204 4.71039 15.6398 4.74178C15.7591 4.77318 15.8304 4.8954 15.799 5.01473C15.766 5.13866 15.743 5.24305 15.7244 5.34808C15.7057 5.45301 15.6919 5.55716 15.6769 5.68138C15.6624 5.80409 15.5512 5.89183 15.4285 5.87733C15.3058 5.86283 15.218 5.7516 15.2325 5.62884C15.2485 5.49564 15.2634 5.38392 15.2835 5.27103C15.3035 5.15829 15.3291 5.04271 15.3668 4.90091V4.90101Z" fill="#EDB47C"/>
<path fill-rule="evenodd" clip-rule="evenodd" d="M12.5078 11.2214L10.7329 9.63892C10.9135 9.21416 11.0057 8.33843 11.0093 7.01172H14.0062C14.0099 8.33843 14.102 9.21416 14.2826 9.63892L12.5078 11.2214Z" fill="#EDBB8A"/>
<path fill-rule="evenodd" clip-rule="evenodd" d="M12.5077 11.2232L11.332 10.175C11.4658 9.70103 11.5343 8.89395 11.5375 7.75391H14.0188C14.0501 8.67178 14.1379 9.30078 14.2825 9.64082L12.5076 11.2233L12.5077 11.2232Z" fill="#F9C795"/>
<path fill-rule="evenodd" clip-rule="evenodd" d="M9.61919 4.58521C9.70381 5.53198 9.96899 7.07866 10.6028 7.77891C10.8485 8.05029 11.5687 8.82666 11.9386 8.97207C12.173 9.06421 12.2593 8.98105 12.5079 8.97832C12.7565 8.98101 12.8428 9.06421 13.0772 8.97207C13.4472 8.82666 14.1674 8.05029 14.413 7.77891C15.0469 7.07871 15.3121 5.53198 15.3967 4.58521C15.3967 2.51016 13.9514 1.58979 12.5079 1.57812C11.0645 1.58984 9.61919 2.51021 9.61919 4.58521Z" fill="#F2CB9F"/>
<path fill-rule="evenodd" clip-rule="evenodd" d="M11.1255 8.32817C11.4092 8.60811 11.7298 8.89141 11.9387 8.97354C12.1731 9.06567 12.2594 8.98247 12.508 8.97978C12.7566 8.98247 12.8429 9.06567 13.0773 8.97354C13.4473 8.82808 14.1675 8.05176 14.4131 7.78037C15.047 7.08018 15.3122 5.53345 15.3968 4.58667C15.3968 3.21055 14.761 2.34248 13.9119 1.91025C13.6393 1.8314 13.3558 1.7915 13.0724 1.78906C11.6289 1.80146 10.1836 2.77969 10.1836 4.98511C10.2663 5.9689 10.5217 7.56206 11.1254 8.32817H11.1255Z" fill="#FDD7AD"/>
<path fill-rule="evenodd" clip-rule="evenodd" d="M19.2601 14.4015V13.2001C19.2601 11.3394 17.6619 11.0132 15.3417 10.0536L14.4071 9.3125L12.508 11.0058L10.6089 9.3125L9.67427 10.0536C7.35405 11.0132 5.75586 11.3394 5.75586 13.2001V14.4015H19.2601Z" fill="#4F5D99"/>
<path fill-rule="evenodd" clip-rule="evenodd" d="M16.6209 10.5657C16.5181 10.5249 16.413 10.4836 16.3057 10.4414L14.6553 14.4041H15.0223L16.6209 10.5657Z" fill="#45518A"/>
<path fill-rule="evenodd" clip-rule="evenodd" d="M10.3604 14.4015L8.70996 10.4389L9.67397 10.0536L10.6086 9.3125L12.5077 11.0058L14.4068 9.3125L15.3415 10.0536L16.3055 10.4389L14.6551 14.4015H12.5077H10.3604Z" fill="#E7EBF5"/>
<path fill-rule="evenodd" clip-rule="evenodd" d="M12.5078 11.0078L13.4101 11.9347L13.0047 12.5497L13.2271 14.4036H11.7885L12.0107 12.5497L11.6055 11.9347L12.5078 11.0078Z" fill="#6A75AD"/>
<path fill-rule="evenodd" clip-rule="evenodd" d="M12.508 11.0078L13.4103 11.9347L13.005 12.5497L13.2273 14.4036H12.1588L12.335 12.5497L11.9297 11.9347L12.508 11.0078Z" fill="#7986BF"/>
<path fill-rule="evenodd" clip-rule="evenodd" d="M12.5078 11.0078L13.4101 11.9347L13.0048 12.5497H12.5078H12.0107L11.6055 11.9347L12.5078 11.0078Z" fill="#45518A"/>
<path fill-rule="evenodd" clip-rule="evenodd" d="M12.67 11.1719L13.4103 11.9324L13.005 12.5474H12.508H12.335L11.9297 11.9324L12.67 11.1719Z" fill="#4F5D99"/>
<path fill-rule="evenodd" clip-rule="evenodd" d="M12.6051 11.1065L11.1439 12.6073L9.67407 10.0544L11.1666 12.3843L12.5078 11.0066L12.6051 11.1065Z" fill="#D6DBE8"/>
<path fill-rule="evenodd" clip-rule="evenodd" d="M12.5081 11.0058L11.1668 12.3835L9.67432 10.0536L10.609 9.3125L12.5081 11.0058Z" fill="white"/>
<path fill-rule="evenodd" clip-rule="evenodd" d="M12.5078 11.0058L13.849 12.3835L15.3416 10.0536L14.4069 9.3125L12.5078 11.0058Z" fill="white"/>
<path fill-rule="evenodd" clip-rule="evenodd" d="M8.39502 10.5657C8.4978 10.5249 8.60293 10.4836 8.71025 10.4414L10.3607 14.4041H9.99365L8.39502 10.5657Z" fill="#45518A"/>
<path fill-rule="evenodd" clip-rule="evenodd" d="M12.5078 11.2063L13.8717 12.6073L15.3416 10.0544L13.8491 12.3843L12.5079 11.0066L12.5078 11.2063Z" fill="#C7CEE0"/>
<path fill-rule="evenodd" clip-rule="evenodd" d="M9.61513 4.58976C7.93452 0.388836 13.4785 -0.253596 14.2232 1.3237C14.7472 1.24196 17.0574 0.6841 15.3977 4.58972C15.3889 4.31428 15.2679 3.8175 14.9964 3.47409C14.99 3.53986 14.9433 3.74611 14.6781 3.9946C14.5949 3.51994 14.3489 3.03752 14.0149 2.97101C13.5414 4.16681 10.8269 2.29157 9.61513 4.58976Z" fill="#2C3033"/>
<path fill-rule="evenodd" clip-rule="evenodd" d="M5.63384 8.21934C5.63384 8.54868 5.36436 8.81816 5.03501 8.81816H2.82998C2.50063 8.81816 2.23115 8.54868 2.23115 8.21934V7.90156C2.23115 6.25347 0.529785 5.79048 0.529785 3.57563C0.529785 1.54346 2.23115 0.527344 3.93247 0.527344C5.63379 0.527344 7.33521 1.54341 7.33521 3.57559C7.33521 5.79048 5.63384 6.25342 5.63384 7.90151V8.21929V8.21934Z" fill="#F9AC00"/>
<path fill-rule="evenodd" clip-rule="evenodd" d="M5.63398 8.22031C5.63398 8.54971 5.3645 8.81914 5.03516 8.81914H3.62197C3.29263 8.81914 3.02314 8.54966 3.02314 8.22031V7.90259C3.02314 6.25449 1.32178 5.7915 1.32178 3.57666C1.32178 1.70244 2.76895 0.692529 4.32856 0.546875C5.88818 0.692578 7.33535 1.70249 7.33535 3.57666C7.33535 5.79155 5.63398 6.25449 5.63398 7.90259V8.22031Z" fill="#FDC72E"/>
<path fill-rule="evenodd" clip-rule="evenodd" d="M3.02246 8.30469H4.84253V9.15039C4.84253 9.40244 4.63628 9.60869 4.38423 9.60869H3.48076C3.22871 9.60869 3.02246 9.40244 3.02246 9.15039V8.30469Z" fill="#45518A"/>
<path fill-rule="evenodd" clip-rule="evenodd" d="M3.57178 8.30469H4.84268V9.15039C4.84268 9.40244 4.63643 9.60869 4.38437 9.60869H4.03008C3.77803 9.60869 3.57178 9.40244 3.57178 9.15039V8.30469Z" fill="#4F5D99"/>
<path fill-rule="evenodd" clip-rule="evenodd" d="M5.63364 8.22012C5.63364 8.54951 5.36416 8.81895 5.03481 8.81895H2.82979C2.50044 8.81895 2.23096 8.54946 2.23096 8.22012V7.90234H5.63364V8.22012Z" fill="#6A75AD"/>
<path fill-rule="evenodd" clip-rule="evenodd" d="M5.63379 8.22007C5.63379 8.54917 5.36475 8.81851 5.03574 8.8189H3.62178C3.29243 8.8189 3.02295 8.54941 3.02295 8.22007V7.90234H5.63379V8.22012V8.22007Z" fill="#7986BF"/>
<path fill-rule="evenodd" clip-rule="evenodd" d="M3.68941 7.90192V6.12013C3.68941 6.08996 3.68868 6.05978 3.68907 6.02961C3.55421 5.97819 3.42608 5.89186 3.31002 5.77594C3.04468 5.5109 2.83218 5.07848 2.75093 4.5567C2.73043 4.42399 2.82134 4.29972 2.95406 4.27917C3.08677 4.25866 3.21104 4.34958 3.2316 4.48229C3.29639 4.8985 3.4564 5.23395 3.65333 5.43068C3.67574 5.45309 3.6984 5.4734 3.72115 5.49157C3.79376 4.83683 3.97706 4.42599 4.16656 4.21877C4.3003 4.07253 4.4502 4.00544 4.5919 4.00788C4.7605 4.01076 4.90025 4.10187 4.98477 4.26877C5.08638 4.4695 5.0983 4.81134 4.92916 5.23712C4.78238 5.60666 4.59009 5.84396 4.37916 5.97018C4.31295 6.00983 4.24537 6.03874 4.17706 6.05758C4.17686 6.07819 4.17579 6.09894 4.17579 6.12004V7.90182H3.68941V7.90192ZM4.5251 4.54689C4.39464 4.68957 4.26817 4.9902 4.21002 5.49142C4.30474 5.40402 4.39591 5.26242 4.47711 5.05793C4.58048 4.79767 4.59542 4.61203 4.55972 4.51139C4.55054 4.51994 4.53902 4.5317 4.5251 4.54689Z" fill="#FF6600"/>
<path fill-rule="evenodd" clip-rule="evenodd" d="M16.9724 24.4685V23.6917C16.9746 22.4079 17.0326 22.0966 17.5487 21.794C18.0016 21.5285 19.0629 21.233 19.5699 21.0664H21.8726C22.3795 21.233 23.4409 21.5285 23.8937 21.794C24.4098 22.0966 24.4679 22.4079 24.47 23.6917V24.4685H16.9724Z" fill="#6A75AD"/>
<path fill-rule="evenodd" clip-rule="evenodd" d="M9.47461 24.4685V23.6917C9.47676 22.4079 9.53481 22.0966 10.0509 21.794C10.5038 21.5285 11.5652 21.233 12.0721 21.0664H14.3748C14.8817 21.233 15.9431 21.5285 16.3959 21.794C16.912 22.0966 16.9701 22.4079 16.9722 23.6917V24.4685H9.47461Z" fill="#6A75AD"/>
<path fill-rule="evenodd" clip-rule="evenodd" d="M1.97705 24.4685V23.6917C1.9792 22.4079 2.03726 22.0966 2.55337 21.794C3.0062 21.5285 4.06758 21.233 4.57451 21.0664H6.8772C7.38413 21.233 8.44551 21.5285 8.89834 21.794C9.4145 22.0966 9.47256 22.4079 9.47466 23.6917V24.4685H1.97705Z" fill="#6A75AD"/>
<path fill-rule="evenodd" clip-rule="evenodd" d="M5.61802 21.0664H6.877C7.38394 21.2331 8.44531 21.5285 8.8981 21.794C9.41426 22.0966 9.47231 22.4079 9.47441 23.6917V24.4685H3.02051V23.6917C3.02266 22.4079 3.08071 22.0966 3.59683 21.794C4.04966 21.5285 5.11108 21.233 5.61802 21.0664Z" fill="#7986BF"/>
<path fill-rule="evenodd" clip-rule="evenodd" d="M4.57476 21.0673C4.83398 20.9271 5.00356 20.7403 5.00356 20.454V19.625H6.44858V20.454C6.44858 20.7403 6.61821 20.9271 6.87739 21.0673C5.98774 21.5861 5.05957 21.35 4.57476 21.0673Z" fill="#EDBB8A"/>
<path fill-rule="evenodd" clip-rule="evenodd" d="M5.29658 19.625H6.44819V20.454C6.44819 20.7403 6.61782 20.9271 6.877 21.0673C6.20811 21.4574 5.51738 21.4207 5.00977 21.2583C5.18716 21.1293 5.29658 20.9636 5.29658 20.7336V19.625V19.625Z" fill="#F9C795"/>
<path fill-rule="evenodd" clip-rule="evenodd" d="M5.72597 20.4195C3.78275 20.3043 3.26962 16.7812 5.72597 16.7812C8.18231 16.7812 7.66918 20.3043 5.72597 20.4195Z" fill="#2C3033"/>
<path fill-rule="evenodd" clip-rule="evenodd" d="M13.1161 21.0664H14.375C14.882 21.2331 15.9434 21.5285 16.3961 21.794C16.9123 22.0966 16.9704 22.4079 16.9725 23.6917V24.4685H10.5186V23.6917C10.5207 22.4079 10.5788 22.0966 11.0949 21.794C11.5477 21.5285 12.6091 21.233 13.116 21.0664H13.1161Z" fill="#7986BF"/>
<path fill-rule="evenodd" clip-rule="evenodd" d="M20.6136 21.0664H21.8726C22.3795 21.2331 23.4409 21.5285 23.8937 21.794C24.4099 22.0966 24.4679 22.4079 24.47 23.6917V24.4685H18.0161V23.6917C18.0183 22.4079 18.0763 22.0966 18.5924 21.794C19.0453 21.5285 20.1066 21.233 20.6136 21.0664H20.6136Z" fill="#7986BF"/>
<path fill-rule="evenodd" clip-rule="evenodd" d="M12.0723 21.0673C12.3315 20.9271 12.5011 20.7403 12.5011 20.454V19.625H13.9461V20.454C13.9461 20.7403 14.1158 20.9271 14.375 21.0673C13.4853 21.5861 12.5571 21.35 12.0723 21.0673H12.0723Z" fill="#EDBB8A"/>
<path fill-rule="evenodd" clip-rule="evenodd" d="M19.5698 21.0673C19.8291 20.9271 19.9987 20.7403 19.9987 20.454V19.625H21.4437V20.454C21.4437 20.7403 21.6133 20.9271 21.8725 21.0673C20.9829 21.5861 20.0546 21.35 19.5698 21.0673Z" fill="#EDBB8A"/>
<path fill-rule="evenodd" clip-rule="evenodd" d="M12.7946 19.625H13.9462V20.454C13.9462 20.7403 14.1159 20.9271 14.375 21.0673C13.7062 21.4574 13.0154 21.4207 12.5078 21.2583C12.6852 21.1293 12.7946 20.9636 12.7946 20.7336V19.625V19.625Z" fill="#F9C795"/>
<path fill-rule="evenodd" clip-rule="evenodd" d="M20.2922 19.625H21.4438V20.454C21.4438 20.7403 21.6134 20.9271 21.8726 21.0673C21.2037 21.4574 20.513 21.4207 20.0054 21.2583C20.1828 21.1293 20.2922 20.9636 20.2922 20.7336V19.625V19.625Z" fill="#F9C795"/>
<path fill-rule="evenodd" clip-rule="evenodd" d="M20.7211 20.4195C18.7779 20.3043 18.2647 16.7812 20.7211 16.7812C23.1774 16.7812 22.6643 20.3043 20.7211 20.4195Z" fill="#2C3033"/>
<path fill-rule="evenodd" clip-rule="evenodd" d="M13.2235 20.4195C11.2803 20.3043 10.7672 16.7812 13.2235 16.7812C15.6799 16.7812 15.1667 20.3043 13.2235 20.4195Z" fill="#2C3033"/>
</g>
<defs>
<clipPath id="clip0_13_2995">
<rect width="25" height="25" fill="white"/>
</clipPath>
</defs>
</svg>
